<svg width="29" height="15" viewBox="0 0 29 15" fill="none" xmlns="http://www.w3.org/2000/svg">
<path d="M24.0648 8.60143C23.5959 8.07643 23.7301 7.84286 24.0648 7.37357C24.0708 7.36821 27.9413 2.62607 28.34 1.01786L28.3424 1.01679C28.5406 0.430714 28.3424 0 27.3842 0H24.2134C23.4062 0 23.034 0.369643 22.8347 0.783214C22.8347 0.783214 21.2203 4.20964 18.9364 6.43071C18.1993 7.0725 17.8586 7.27821 17.4562 7.27821C17.258 7.27821 16.9499 7.0725 16.9499 6.48643V1.01679C16.9499 0.313928 16.7239 0 16.0557 0H11.0699C10.5636 0 10.2627 0.327857 10.2627 0.633214C10.2627 1.29964 11.4046 1.45286 11.5231 3.32786V7.39607C11.5231 8.2875 11.3406 8.45143 10.9358 8.45143C9.85793 8.45143 7.24179 5.01107 5.69145 1.07357C5.37848 0.309643 5.07276 0.00107135 4.25952 0.00107135H1.08754C0.182465 0.00107135 0 0.370714 0 0.784286C0 1.515 1.07787 5.14821 5.01234 9.94821C7.63451 13.2246 11.3273 15 14.6866 15C16.7058 15 16.9523 14.6057 16.9523 13.9275C16.9523 10.7968 16.7698 10.5011 17.7812 10.5011C18.2501 10.5011 19.0573 10.7068 20.9424 12.2871C23.0969 14.1611 23.4509 15 24.6569 15H27.8277C28.7315 15 29.1895 14.6057 28.9261 13.8279C28.3231 12.1918 24.2485 8.82643 24.0648 8.60143Z" fill="#33CCFF"/>
</svg>
