<svg width="14" height="16" viewBox="0 0 14 16" fill="none" xmlns="http://www.w3.org/2000/svg">
<path d="M2.79573 0.254531C2.51142 0.086553 2.18944 -0.00121618 1.86202 1.27298e-05C1.5346 0.00124164 1.21324 0.0914256 0.930123 0.261533C0.647003 0.431641 0.41206 0.675701 0.248822 0.969275C0.0855831 1.26285 -0.000221434 1.59563 4.29159e-07 1.93429V14.0657C-0.000221434 14.4044 0.0855831 14.7372 0.248822 15.0307C0.41206 15.3243 0.647003 15.5684 0.930123 15.7385C1.21324 15.9086 1.5346 15.9988 1.86202 16C2.18944 16.0012 2.51142 15.9134 2.79573 15.7455L13.0592 9.67783C13.345 9.5087 13.5826 9.26445 13.7478 8.96981C13.913 8.67517 14 8.34061 14 8C14 7.65939 13.913 7.32483 13.7478 7.03019C13.5826 6.73555 13.345 6.4913 13.0592 6.32217L2.79573 0.254531Z" fill="#1580FF"/>
</svg>
