<svg width="313" height="153" viewBox="0 0 313 153" fill="none" xmlns="http://www.w3.org/2000/svg">
<path d="M104.541 0C99.1478 9.53659 94.3771 19.6951 90.2286 30.4756C86.0802 40.8415 83.3837 50.1707 82.1392 58.4634H144.366V153H0V75.2561C0 63.2317 2.90391 50.1707 8.71173 36.0732C14.9344 21.561 21.5719 9.53659 28.6243 0H104.541ZM273.175 0C267.782 9.53659 263.011 19.6951 258.863 30.4756C254.714 40.8415 252.018 50.1707 250.773 58.4634H313V153H168.634V75.2561C168.634 63.2317 171.538 50.1707 177.346 36.0732C183.569 21.561 190.206 9.53659 197.258 0H273.175Z" fill="#33E6FF" fill-opacity="0.29"/>
</svg>
