<svg width="32" height="32" viewBox="0 0 32 32" fill="none" xmlns="http://www.w3.org/2000/svg">
<path d="M27 8.5H5C4.44772 8.5 4 8.94772 4 9.5V25.5C4 26.0523 4.44772 26.5 5 26.5H27C27.5523 26.5 28 26.0523 28 25.5V9.5C28 8.94772 27.5523 8.5 27 8.5Z" stroke="#33E6FF" stroke-width="3" stroke-linecap="round" stroke-linejoin="round"/>
<path d="M21 8.5V6C21 5.46957 20.7893 4.96086 20.4142 4.58579C20.0391 4.21071 19.5304 4 19 4H13C12.4696 4 11.9609 4.21071 11.5858 4.58579C11.2107 4.96086 11 5.46957 11 6V8.5" stroke="#33E6FF" stroke-width="3" stroke-linecap="round" stroke-linejoin="round"/>
<path d="M28 15.2876C24.3529 17.3969 20.2132 18.5051 16 18.5001C11.7861 18.5111 7.64484 17.4024 4 15.2876" stroke="#33E6FF" stroke-width="3" stroke-linecap="round" stroke-linejoin="round"/>
<path d="M14.5 14H17.5" stroke="#33E6FF" stroke-width="3" stroke-linecap="round" stroke-linejoin="round"/>
</svg>
