<svg width="119" height="24" viewBox="0 0 119 24" fill="none" xmlns="http://www.w3.org/2000/svg">
<path d="M40.2196 9.8116V8.47176H32.0596V1.03247H34.9182V6.40636H38.3815V1.03247H41.2305V6.40636H42.7783V9.79225L40.2196 9.8116Z" fill="white"/>
<path d="M43.8716 8.47175V1.03247H51.8623V3.1027H46.7302V3.77504H51.1948V5.6663H46.7302V6.40152H52.0509V8.47175H43.8716Z" fill="white"/>
<path d="M59.7611 8.47175V5.72435H56.1624V8.47175H53.3037V1.03247H56.1624V3.66379H59.7611V1.03247H62.6101V8.47175H59.7611Z" fill="white"/>
<path d="M66.5957 8.47175V3.15107H63.5532V1.03247H72.492V3.15591H69.4495V8.47659L66.5957 8.47175Z" fill="white"/>
<path d="M73.4351 8.47175V1.03247H77.7303C78.0737 1.03247 78.4172 1.03247 78.7606 1.03247C79.0964 1.05037 79.4308 1.08914 79.7618 1.14856C80.0713 1.2073 80.3743 1.29641 80.6664 1.41459C80.9396 1.52831 81.189 1.69239 81.4016 1.89829C81.6119 2.1054 81.7767 2.35417 81.8853 2.62868C82.0148 2.96142 82.0773 3.31649 82.0691 3.67346C82.0829 4.1308 81.9885 4.58493 81.7934 4.9988C81.6178 5.35108 81.3567 5.65374 81.034 5.87913C80.6875 6.11116 80.3001 6.2753 79.8924 6.36283C79.4256 6.46647 78.9485 6.51678 78.4704 6.51278H76.226V8.44757L73.4351 8.47175ZM78.1173 4.5151C78.2445 4.51455 78.3712 4.4983 78.4945 4.46673C78.6055 4.43712 78.7104 4.38799 78.8041 4.32162C78.8895 4.25575 78.959 4.17142 79.0073 4.07493C79.0577 3.9642 79.0825 3.8435 79.0798 3.72183C79.0836 3.60728 79.0569 3.49379 79.0024 3.39292C78.9506 3.30641 78.8773 3.23476 78.7896 3.18493C78.6947 3.13264 78.5917 3.09667 78.4849 3.07852C78.3633 3.05886 78.2404 3.04915 78.1173 3.04949H76.2357V4.50059L78.1173 4.5151Z" fill="white"/>
<path d="M36.2002 18.8134V17.9524H36.1519C35.4454 17.9616 34.7401 17.8951 34.0478 17.7541C33.5285 17.6491 33.0353 17.4419 32.5967 17.1447C32.212 16.877 31.9104 16.5066 31.726 16.0757C31.526 15.5779 31.4289 15.0448 31.4406 14.5085C31.4247 13.9734 31.522 13.4411 31.726 12.9462C31.9117 12.5161 32.2131 12.146 32.5967 11.8772C33.0431 11.5758 33.547 11.37 34.0768 11.2726C34.7741 11.133 35.4843 11.0682 36.1954 11.0791V10.2084H39.0541V11.0743H39.1798C39.8702 11.0651 40.5596 11.1316 41.2355 11.2726C41.7562 11.3785 42.2499 11.5892 42.6866 11.8917C43.0598 12.1634 43.3523 12.5312 43.5331 12.9558C43.7278 13.4481 43.8215 13.9745 43.8088 14.5037C43.8219 15.0376 43.7281 15.5688 43.5331 16.066C43.3551 16.495 43.0622 16.8666 42.6866 17.1398C42.2514 17.4441 41.757 17.6534 41.2355 17.7541C40.5532 17.8957 39.8573 17.9622 39.1605 17.9524H39.0686V18.8134H36.2002ZM36.2002 13.1977H36.1664C35.8745 13.1923 35.5827 13.2166 35.2957 13.2702C35.1004 13.3074 34.9156 13.3866 34.754 13.5024C34.6231 13.6038 34.5281 13.7445 34.4831 13.9039C34.4284 14.1007 34.4024 14.3043 34.4057 14.5085C34.4022 14.7131 34.4299 14.917 34.4879 15.1131C34.5342 15.2733 34.6288 15.4152 34.7588 15.5194C34.9193 15.6373 35.1046 15.7167 35.3006 15.7516C35.5859 15.8053 35.8761 15.8296 36.1664 15.8242H36.2002V13.1977ZM39.0589 13.1977V15.8193H39.0976C39.3832 15.8209 39.6683 15.795 39.9489 15.7419C40.1393 15.7082 40.3186 15.6285 40.4713 15.5098C40.5971 15.4035 40.6881 15.262 40.7325 15.1035C40.8195 14.71 40.8195 14.3022 40.7325 13.9087C40.6927 13.7519 40.6047 13.6115 40.481 13.5073C40.3403 13.3938 40.1744 13.3158 39.9973 13.2799C39.7218 13.2243 39.4415 13.1968 39.1605 13.1977H39.0589Z" fill="white"/>
<path d="M44.771 18.2329V10.7888H47.3104V14.0731L47.2717 14.8616L47.7844 14.3392L51.2332 10.7888H54.0967V18.2329H51.5573V14.9535L51.5911 14.1554L51.0736 14.6874L47.5716 18.2329H44.771Z" fill="white"/>
<path d="M62.1893 18.2329V15.4759H58.5906V18.2329H55.7319V10.7888H58.5906V13.425H62.1893V10.7888H65.0335V18.2329H62.1893Z" fill="white"/>
<path d="M73.1984 17.0672H69.3288L68.8451 18.2329H65.8945L69.5513 10.7888H73.0968L76.7681 18.2329H73.7111L73.1984 17.0672ZM70.1366 15.205H72.3761L71.2539 12.6269L70.1366 15.205Z" fill="white"/>
<path d="M84.0717 18.2329V15.4759H80.4778V18.2329H77.6191V10.7888H80.4778V13.425H84.0717V10.7888H86.9207V18.2329H84.0717Z" fill="white"/>
<path d="M98.0507 15.5142C97.8791 16.188 97.5041 16.7926 96.9769 17.2459C96.7219 17.4677 96.4409 17.6578 96.1401 17.8118C95.8298 17.9669 95.506 18.0931 95.1727 18.1891C94.837 18.2869 94.4941 18.358 94.1473 18.4019C93.8039 18.4457 93.4582 18.4683 93.1121 18.4696C92.3738 18.4803 91.6376 18.3859 90.9258 18.1891C90.3382 18.0306 89.7842 17.7668 89.2909 17.4103C88.8574 17.0811 88.5063 16.6555 88.2655 16.1672C88.024 15.6633 87.9015 15.1105 87.9076 14.5517C87.9 13.9849 88.0225 13.424 88.2655 12.9119C88.5026 12.42 88.8502 11.9896 89.2813 11.6543C89.7632 11.2883 90.3096 11.0159 90.892 10.8514C91.5824 10.6554 92.2977 10.5609 93.0154 10.5708C93.3759 10.5701 93.7361 10.5911 94.0941 10.6337C94.4519 10.6811 94.8059 10.7538 95.1534 10.8514C95.4858 10.9518 95.8094 11.0796 96.1208 11.2335C96.4244 11.3814 96.7073 11.5684 96.9624 11.7898C97.4932 12.242 97.8687 12.8493 98.0362 13.5262L95.134 13.7439C95.0773 13.5444 94.9727 13.3617 94.8293 13.2118C94.6895 13.076 94.5254 12.9677 94.3456 12.8926C94.1656 12.8134 93.9749 12.7613 93.7797 12.7378C93.5891 12.7094 93.3967 12.6949 93.2041 12.6943C92.8779 12.6897 92.5525 12.7287 92.2367 12.8104C91.971 12.8768 91.7211 12.9952 91.5014 13.1586C91.2958 13.3023 91.1295 13.4952 91.0177 13.7197C90.9024 13.956 90.8444 14.2162 90.8484 14.4791C90.8443 14.7519 90.9039 15.0219 91.0226 15.2676C91.1376 15.498 91.3029 15.6996 91.5063 15.8577C91.7276 16.0256 91.9787 16.1503 92.2463 16.2253C92.5511 16.3136 92.8674 16.356 93.1847 16.351C93.4034 16.3503 93.6217 16.3325 93.8377 16.2978C94.0291 16.2737 94.2163 16.2232 94.3939 16.1479C94.5629 16.0712 94.7156 15.9628 94.8438 15.8286C94.9806 15.6737 95.0814 15.4903 95.1388 15.2917L98.0507 15.5142Z" fill="white"/>
<path d="M103.652 18.4697C102.912 18.48 102.174 18.3856 101.461 18.1891C100.864 18.0339 100.302 17.7699 99.8017 17.4104C99.3599 17.0813 99.0005 16.6541 98.7521 16.1624C98.5012 15.6476 98.3752 15.0808 98.3845 14.5082C98.3736 13.9517 98.4972 13.4007 98.7447 12.9022C98.9923 12.4037 99.3566 11.9723 99.8065 11.6447C100.306 11.2756 100.871 11.0033 101.47 10.8417C102.189 10.6453 102.931 10.5509 103.676 10.5612C104.413 10.5515 105.147 10.6459 105.858 10.8417C106.454 11.0043 107.015 11.2766 107.512 11.6447C107.952 11.976 108.31 12.4027 108.561 12.8926C108.813 13.3937 108.94 13.9477 108.934 14.5082C108.941 15.0744 108.815 15.6343 108.566 16.1431C108.32 16.6418 107.961 17.0758 107.517 17.4104C107.017 17.7794 106.453 18.0517 105.853 18.2133C105.135 18.4012 104.394 18.4875 103.652 18.4697ZM103.652 16.3365C103.979 16.3424 104.305 16.2984 104.619 16.2059C104.881 16.1294 105.126 16.0029 105.34 15.8335C105.531 15.6706 105.683 15.467 105.785 15.2377C105.887 15.0084 105.937 14.7591 105.93 14.5082C105.933 14.2516 105.88 13.9976 105.775 13.7633C105.669 13.5394 105.514 13.3426 105.321 13.1877C105.106 13.02 104.861 12.8937 104.6 12.8152C103.977 12.641 103.318 12.641 102.694 12.8152C102.432 12.8945 102.188 13.0225 101.974 13.1925C101.78 13.3463 101.626 13.5435 101.524 13.7681C101.417 14.0028 101.362 14.2576 101.362 14.5154C101.362 14.7732 101.417 15.0281 101.524 15.2627C101.628 15.4874 101.784 15.6845 101.978 15.8383C102.193 16.0068 102.437 16.1332 102.699 16.2108C103.012 16.3018 103.336 16.3442 103.662 16.3365H103.652Z" fill="white"/>
<path d="M116.571 14.3634L117.055 14.3924C117.239 14.4076 117.422 14.4367 117.601 14.4795C117.781 14.5208 117.956 14.5791 118.124 14.6536C118.289 14.7277 118.44 14.8309 118.569 14.9583C118.704 15.0864 118.811 15.2412 118.883 15.413C118.965 15.6174 119.005 15.8362 118.999 16.0563C119.003 16.3573 118.932 16.6546 118.794 16.9219C118.656 17.1893 118.454 17.4186 118.206 17.5897C117.898 17.8116 117.552 17.9755 117.185 18.0733C116.704 18.1974 116.207 18.256 115.71 18.2475H109.906V10.7888H115.604C116.015 10.7878 116.425 10.8152 116.832 10.8711C117.182 10.9164 117.521 11.0176 117.838 11.171C118.11 11.3035 118.343 11.5033 118.516 11.7514C118.687 12.0318 118.773 12.3564 118.762 12.6849C118.768 12.8912 118.733 13.0965 118.661 13.2896C118.599 13.4489 118.505 13.5938 118.385 13.7152C118.27 13.8275 118.138 13.9206 117.993 13.9909C117.838 14.0609 117.676 14.116 117.51 14.1554C117.351 14.1972 117.189 14.2279 117.026 14.2473L116.542 14.2957L116.571 14.3634ZM115.183 13.662C115.332 13.6654 115.479 13.6232 115.604 13.5411C115.664 13.495 115.711 13.4345 115.742 13.3651C115.772 13.2958 115.785 13.2199 115.778 13.1445C115.781 13.0612 115.765 12.9783 115.729 12.9026C115.703 12.8376 115.657 12.782 115.599 12.743C115.544 12.6988 115.479 12.6689 115.41 12.6559C115.331 12.6361 115.25 12.6263 115.168 12.6269H112.702V13.6669L115.183 13.662ZM115.12 16.3998H115.415C115.513 16.3904 115.609 16.3676 115.7 16.332C115.787 16.2957 115.862 16.2373 115.918 16.1627C115.977 16.0671 116.006 15.9558 116 15.8435C116.008 15.7415 115.983 15.6398 115.929 15.5529C115.875 15.466 115.795 15.3984 115.7 15.3598C115.61 15.3198 115.514 15.2968 115.415 15.2921H115.135H112.702V16.4336L115.12 16.3998Z" fill="white"/>
<g opacity="0.9">
<g style="mix-blend-mode:lighten" opacity="0.9">
<path d="M16.6247 15.5773L4.04858 13.4249C3.45944 13.3286 2.9236 13.0264 2.53649 12.572C2.14939 12.1175 1.93617 11.5404 1.93482 10.9435V6.10652C1.93408 5.51098 2.14388 4.93435 2.52713 4.47853C2.91038 4.0227 3.44242 3.71701 4.02923 3.61547L13.7032 1.96606C14.0629 1.90801 14.4309 1.92865 14.7819 2.02656C15.1328 2.12446 15.4584 2.29731 15.7361 2.53317C16.0138 2.76904 16.237 3.06231 16.3904 3.39279C16.5439 3.72327 16.6238 4.08308 16.6247 4.44743V15.5773Z" fill="#0099FF"/>
<path d="M18.5595 17.8942L3.70032 15.3306C2.66372 15.1564 1.72268 14.6197 1.04498 13.8162C0.36727 13.0127 -0.00305379 11.9946 2.3615e-05 10.9435V6.10652C-0.00340483 5.05424 0.366576 4.03487 1.04414 3.22976C1.72171 2.42466 2.66292 1.88602 3.70032 1.7097L13.3743 0.0602832C14.0117 -0.0456627 14.6646 -0.0116627 15.2876 0.159925C15.9106 0.331512 16.4888 0.636578 16.9821 1.05396C17.4754 1.47135 17.872 1.99105 18.1444 2.57703C18.4168 3.16301 18.5585 3.80124 18.5595 4.44743V17.8942ZM14.1095 3.86699C14.0822 3.86414 14.0546 3.86414 14.0273 3.86699L4.35331 5.52608C4.2175 5.54903 4.09428 5.61953 4.00567 5.72498C3.91706 5.83042 3.86883 5.96395 3.86961 6.10168V10.9387C3.86883 11.0764 3.91706 11.2099 4.00567 11.3154C4.09428 11.4208 4.2175 11.4913 4.35331 11.5143L14.6899 13.2798V4.44743C14.6899 4.29349 14.6288 4.14585 14.5199 4.037C14.4111 3.92814 14.2635 3.86699 14.1095 3.86699Z" fill="#0099FF"/>
</g>
</g>
<g opacity="0.9">
<g style="mix-blend-mode:lighten" opacity="0.9">
<path d="M11.657 21.1205L19.1495 20.1241C19.7544 20.0433 20.3093 19.7458 20.7114 19.2868C21.1135 18.8278 21.3354 18.2384 21.3358 17.6282V14.726C21.3343 14.1161 21.1121 13.5273 20.7102 13.0686C20.3083 12.6098 19.7539 12.3119 19.1495 12.2302L14.5109 11.6062C14.1553 11.5586 13.7937 11.5876 13.4502 11.6913C13.1068 11.7949 12.7895 11.9709 12.5197 12.2073C12.2498 12.4437 12.0337 12.735 11.8857 13.0618C11.7378 13.3887 11.6615 13.7433 11.6619 14.1021V21.1157L11.657 21.1205Z" fill="#33CCFF"/>
<path d="M9.72224 23.331V14.1069C9.71869 13.4706 9.85165 12.8409 10.1121 12.2604C10.3726 11.6798 10.7546 11.1619 11.2323 10.7415C11.71 10.3211 12.2723 10.008 12.8812 9.82345C13.4902 9.63885 14.1317 9.587 14.7624 9.67139L19.401 10.2905C20.4701 10.4343 21.451 10.9602 22.1624 11.7712C22.8737 12.5821 23.2674 13.6231 23.2706 14.7019V17.604C23.2675 18.6833 22.874 19.725 22.1628 20.5367C21.4515 21.3484 20.4705 21.8754 19.401 22.0202L9.72224 23.331ZM14.1723 13.541C14.0313 13.5401 13.895 13.5918 13.7901 13.6861C13.7274 13.7409 13.6773 13.8086 13.643 13.8846C13.6088 13.9605 13.5914 14.043 13.5918 14.1263V18.9342L18.9125 18.228C19.0487 18.204 19.172 18.1326 19.2606 18.0263C19.3491 17.9201 19.3972 17.7859 19.3962 17.6476V14.7454C19.396 14.6079 19.3474 14.4749 19.259 14.3696C19.1706 14.2644 19.0479 14.1936 18.9125 14.1698L14.2497 13.541H14.1723Z" fill="#33CCFF"/>
</g>
</g>
</svg>
