<svg width="78" height="78" viewBox="0 0 78 78" fill="none" xmlns="http://www.w3.org/2000/svg">
<path d="M66.2873 37.2863H61.5C61.4082 37.2863 61.3201 37.2499 61.2552 37.1849C61.1903 37.12 61.1538 37.032 61.1538 36.9402V23.5716C61.1538 21.7878 60.4452 20.0771 59.1839 18.8158C57.9226 17.5544 56.2119 16.8458 54.4281 16.8458H41.0596C40.9678 16.8458 40.8798 16.8094 40.8148 16.7444C40.7499 16.6795 40.7135 16.5915 40.7135 16.4997V11.7123C40.7135 7.015 36.9923 3.08267 32.295 3.00132C31.1569 2.98133 30.0263 3.18818 28.969 3.60982C27.9117 4.03145 26.949 4.65942 26.137 5.45709C25.325 6.25475 24.68 7.20614 24.2396 8.25575C23.7992 9.30535 23.5722 10.4322 23.5719 11.5704V16.4997C23.5719 16.5915 23.5355 16.6795 23.4705 16.7444C23.4056 16.8094 23.3176 16.8458 23.2258 16.8458H9.85731C8.04032 16.8513 6.29932 17.5755 5.01451 18.8603C3.7297 20.1452 3.00548 21.8862 3 23.7032V35.8844C3 35.9762 3.03647 36.0642 3.10139 36.1292C3.1663 36.1941 3.25435 36.2305 3.34615 36.2305H8.00365C13.0869 36.2305 17.2944 40.6406 17.3654 45.7239C17.4381 50.8937 13.2963 55.6153 8.14212 55.6153H3.34615C3.25435 55.6153 3.1663 55.6517 3.10139 55.7167C3.03647 55.7816 3 55.8696 3 55.9614V68.1427C3.00548 69.9596 3.7297 71.7007 5.01451 72.9855C6.29932 74.2703 8.04032 74.9945 9.85731 75H22.0385C22.1303 75 22.2183 74.9635 22.2832 74.8986C22.3481 74.8337 22.3846 74.7456 22.3846 74.6538V71.0313C22.3846 65.7905 26.6683 61.2784 31.9038 61.1555C37.1135 61.0343 41.7692 64.6707 41.7692 69.8579V74.6538C41.7692 74.7456 41.8057 74.8337 41.8706 74.8986C41.9355 74.9635 42.0236 75 42.1154 75H54.4281C56.2119 75 57.9226 74.2914 59.1839 73.0301C60.4452 71.7687 61.1538 70.058 61.1538 68.2742V54.7741C61.1538 54.6823 61.1903 54.5943 61.2552 54.5293C61.3201 54.4644 61.4082 54.428 61.5 54.428H66.4292C71.2113 54.428 75 50.5043 75 45.7048C75 40.9054 70.9846 37.2863 66.2873 37.2863V37.2863Z" stroke="white" stroke-width="5" stroke-linecap="round" stroke-linejoin="round"/>
</svg>
