<svg width="49" height="57" viewBox="0 0 49 57" fill="none" xmlns="http://www.w3.org/2000/svg">
<g clip-path="url(#clip0_235_1272)">
<path fill-rule="evenodd" clip-rule="evenodd" d="M2.03613 55.6312C2.41009 55.4872 3.98189 54.7201 3.98189 53.635C3.98189 51.2319 2.79454 47.9384 2.79454 47.9384C2.81073 47.7163 2.83487 47.4949 2.86692 47.2745C4.02572 48.4021 5.32114 50.8794 5.50613 53.7976C5.50882 53.8449 5.55794 53.8799 5.60605 53.8668C6.58448 53.6061 7.76746 52.6535 7.51992 51.5968C6.97746 49.2892 5.08258 47.3482 3.12765 46.4279C3.16133 46.3375 3.17813 46.2923 3.19082 46.2581C3.21179 46.2016 3.22155 46.1753 3.27779 46.0254C5.07368 46.4295 8.52236 48.8088 9.1272 52.0018C9.13157 52.0222 9.14393 52.0401 9.16154 52.0514C9.17916 52.0627 9.20058 52.0666 9.22109 52.0622C10.378 51.8357 11.3331 50.7098 11.0428 49.8841C10.295 47.7452 6.58893 45.7859 3.63794 45.0746C4.23917 43.4388 5.03606 42.4582 5.82052 41.9605C7.61817 40.8189 9.35678 42.2212 8.54823 44.1571C8.44007 44.416 8.5866 44.6801 8.90115 44.6801C10.9202 44.6801 13.4075 45.4062 14.392 46.3798C15.0211 47.3193 16.1835 47.9203 17.4951 47.7916C18.9853 47.6465 20.2005 46.5319 20.3684 45.1543C20.5149 43.947 19.8877 42.8632 18.888 42.2727L17.1448 43.6374L17.1447 43.637L15.4024 42.2724C14.7073 42.6845 14.1963 43.339 13.9979 44.106C12.95 44.2521 10.0926 43.6206 10.3704 43.2016C13.502 38.8172 11.1067 36.2069 8.22805 36.3521V39.2967C8.22805 40.2423 7.39891 41.0085 6.37766 41.0085H4.3899C2.9835 41.0085 2.06121 42.3964 2.03613 42.4345V55.6312ZM2.03613 40.4209C2.86134 40.4215 3.62248 40.2479 4.01388 40.0557L2.03613 34.6539V40.4209ZM2.03613 33.5039L4.34724 39.817C5.34793 39.3253 6.08141 38.5468 6.08141 37.7115C6.08141 36.9993 5.02791 37.2355 4.51603 37.791C4.46965 37.5364 4.42471 37.2873 4.38048 37.0422C4.26789 36.4182 4.15999 35.8202 4.0452 35.2235C4.00154 34.9943 4.11851 34.9122 4.30341 34.843L4.30316 34.843C4.92412 34.6139 5.8971 34.7993 5.86401 35.6915C5.85603 35.8935 6.14112 35.8936 6.16161 35.6871C6.34743 34.3514 5.44055 33.9664 4.49176 34.123C4.4536 33.9743 4.41768 33.8317 4.38282 33.6933C4.30999 33.4042 4.2418 33.1334 4.16746 32.8642C4.07996 32.5424 4.04772 31.9378 4.42215 31.9378C4.59914 31.9378 4.55858 32.3699 4.53324 32.6398C4.52967 32.6778 4.5264 32.7127 4.52409 32.7426C4.50704 32.9552 4.58387 33.0838 4.75727 33.0899C4.86543 33.0943 5.00037 32.957 5.08073 32.8659C5.62402 32.2545 5.74998 31.308 5.11381 30.8515C4.58144 30.4682 3.24832 30.7534 2.88187 31.2992C2.82661 31.0936 2.56211 30.7543 2.43514 30.6063C2.31196 30.4621 2.2798 30.3633 2.45042 30.2365C2.53087 30.1752 2.77388 29.9347 2.77388 29.6862C2.77388 29.5393 2.65951 29.268 2.29592 29.268C2.20901 29.268 2.11916 29.2862 2.03613 29.3237V33.5039ZM2.03613 27.6667H7.52219C7.59642 27.6667 7.62774 27.5826 7.57324 27.5371C3.93419 24.5428 7.96455 17.137 12.7918 17.8631C13.7478 18.0074 14.0497 18.6513 14.1079 18.848C14.4322 18.5761 14.7324 17.6295 14.6153 17.0083V17.0084C14.2822 15.2346 11.6473 15.2433 8.85297 15.2525C7.02408 15.2585 5.12686 15.2648 3.76188 14.7717C3.69571 15.6272 4.82411 16.998 5.90348 17.5053C4.05847 19.0991 2.40206 22.3104 2.06785 26.2337C2.05835 26.1218 2.04777 26.0104 2.03613 25.8997V27.6667ZM2.03613 10.6076H3.51702C3.91286 12.1499 5.22163 13.9283 8.13349 13.9283H11.5956C11.5956 13.9283 12.2012 13.1104 12.353 12.7054C12.8999 11.248 12.2012 10.5683 11.1818 10.5683L9.86397 11.7571L8.54613 10.5683C7.52672 10.5683 6.82808 11.248 7.3749 12.7054C7.4446 12.8918 7.6117 13.1655 7.76973 13.406C6.54124 13.238 4.97325 12.401 4.62922 10.6076C4.62922 10.6076 5.53695 9.17215 5.76484 8.59131C6.58331 6.5025 5.53795 5.64859 4.00926 5.64859L2.03613 7.95745V10.6076ZM2.03613 5.28688L3.34119 3.62004H3.34102L2.03613 2.03638V5.28688ZM9.20454 19.5348C9.89613 19.3223 11.1014 19.3056 11.9395 20.037L11.9394 20.0369C11.9394 19.2549 11.2605 18.5603 11.0237 18.4719C10.7127 18.527 9.65765 18.981 9.20454 19.5348ZM18.5331 11.7519C18.5331 9.98853 15.7027 9.99547 15.7894 10.2727H15.7895C16.2791 11.8404 15.3463 13.798 12.6704 13.9284C12.6499 13.9004 12.6625 13.5479 12.6625 13.5479C14.9059 13.5479 15.9342 11.1441 14.167 9.51084C14.8622 7.33675 15.8212 8.35138 16.7627 9.34756C17.1051 9.70978 17.4451 10.0696 17.7693 10.2727C18.0352 10.4394 18.4829 10.5028 18.94 10.5675C19.6611 10.6697 20.4057 10.7751 20.497 11.2945C20.5797 11.7624 20.307 12.0475 19.996 12.3727C19.4999 12.8914 18.9061 13.5123 19.5008 15.1399C19.0139 14.7717 17.2108 13.7412 17.6469 15.7103C17.4575 15.7103 16.8401 15.2913 16.8401 14.7201C16.8401 14.1012 17.2712 13.652 17.6984 13.2071C18.1177 12.7702 18.5331 12.3374 18.5331 11.7519ZM10.7923 8.41031L10.7924 8.41035V8.41027L10.7923 8.41031ZM9.86405 7.28445L10.7923 8.41031L9.86405 9.51076L8.93668 8.41035L9.86405 7.28445ZM18.3214 40.9532L18.3214 40.9533V40.9532L18.3214 40.9532ZM17.1448 39.7138L18.3214 40.9532L17.1448 42.0406L15.9681 40.9533L17.1448 39.7138ZM18.6599 26.0997C23.682 26.7759 27.6023 24.9477 28.2707 24.6109L28.2708 24.6106C28.3191 24.5861 28.3798 24.6166 28.3869 24.6685C28.6416 26.7468 27.3229 28.4176 25.0714 28.7876C22.8057 29.1604 18.0238 28.0353 18.0238 28.0353C17.9289 28.2505 17.8264 28.4624 17.7165 28.6704C20.8811 30.4786 25.3224 30.2861 25.9935 30.246C26.0399 30.2432 26.0792 30.2791 26.0783 30.3229C26.0264 32.5071 23.8884 33.1064 22.0015 32.8509C20.3889 32.6331 18.1364 31.5659 16.5434 30.3587C16.3844 30.5354 16.2138 30.7016 16.0394 30.8609C17.5619 33.3461 21.1375 34.3661 22.3025 34.4589C22.3588 34.4641 22.3928 34.5218 22.3651 34.5682C21.6003 35.8847 19.876 36.3222 17.9925 35.4228C16.8713 34.8866 15.4784 33.4826 14.5216 31.9062C14.3026 32.0138 14.074 32.1048 13.8397 32.1853C14.4331 35.1543 17.3976 36.966 17.9157 37.2624C17.935 37.2727 17.9485 37.2913 17.9524 37.3128C17.9562 37.3343 17.95 37.3563 17.9354 37.3727C17.0536 38.3603 15.02 38.3804 13.7747 36.9519C13.0099 36.0728 12.4211 34.4396 12.0915 32.4678C11.1756 32.4678 9.08136 32.8598 8.38188 34.7045C8.35249 34.7825 8.22821 34.7624 8.22821 34.6811V29.6275C8.22821 29.5759 8.28179 29.5418 8.3336 29.5585C9.48433 29.9371 10.6825 29.9835 11.5126 29.8235C13.1458 29.5357 14.3814 28.2087 14.3814 26.6132C14.3814 25.6955 13.9722 24.8688 13.3138 24.2749C13.1744 24.1489 13.1922 23.9373 13.3558 23.8384C13.4266 23.7958 13.4969 23.7524 13.5666 23.708C19.2775 20.0952 24.4791 11.7264 25.0347 10.814C25.0479 10.794 25.0691 10.7806 25.0929 10.7773C25.1167 10.7739 25.1408 10.7809 25.159 10.7965C26.9154 12.3326 27.0853 15.3452 25.2394 17.7072C24.018 19.2694 21.4537 20.9779 18.8271 22.4607C18.8645 22.7374 18.8901 23.0155 18.9039 23.2943C24.3119 22.1388 27.7447 18.4219 28.2905 17.7964C28.3262 17.7554 28.3977 17.7641 28.4235 17.8131C29.4197 19.7551 28.5567 22.3653 26.583 23.4588C24.8515 24.4175 22.1346 24.9817 18.7922 25.3798C18.756 25.6211 18.7119 25.8612 18.6599 26.0997Z" fill="#2FC6FF" fill-opacity="0.25"/>
<path d="M3.01116 57H45.1674C46.8276 57 48.1786 55.8012 48.1786 54.3281V16.9219C48.1786 16.8916 48.1625 16.8667 48.1605 16.8382C48.1565 16.7972 48.1444 16.7616 48.1344 16.7224C48.1029 16.5986 48.0412 16.4825 47.9537 16.3822C47.9397 16.3661 47.9417 16.3465 47.9276 16.3305L31.8681 0.29925C31.8621 0.293906 31.8541 0.293906 31.848 0.288563C31.7255 0.174937 31.571 0.0925164 31.4004 0.049875C31.3622 0.0391875 31.3281 0.035625 31.288 0.0302813C31.2297 0.021375 31.1755 0 31.1153 0H3.01116C1.35101 0 0 1.19878 0 2.67188V54.3281C0 55.8012 1.35101 57 3.01116 57ZM32.119 3.23297L44.9406 16.0312H33.1228C32.6811 16.0312 32.119 15.2831 32.119 14.6953V3.23297ZM2.00744 2.67188C2.00744 2.43567 2.11319 2.20913 2.30142 2.04211C2.48966 1.87508 2.74496 1.78125 3.01116 1.78125H30.1116V14.6953C30.1116 16.1363 31.4265 17.8125 33.1228 17.8125H46.1711V54.3281C46.1711 54.5643 46.0654 54.7909 45.8771 54.9579C45.6889 55.1249 45.4336 55.2188 45.1674 55.2188H3.01116C2.44908 55.2188 2.00744 54.8269 2.00744 54.3281V2.67188Z" fill="#1580FF"/>
<path d="M11.0408 24.9375H37.1376C37.4038 24.9375 37.6591 24.8437 37.8473 24.6766C38.0355 24.5096 38.1413 24.2831 38.1413 24.0469C38.1413 23.8107 38.0355 23.5841 37.8473 23.4171C37.6591 23.2501 37.4038 23.1562 37.1376 23.1562H11.0408C10.7746 23.1562 10.5193 23.2501 10.3311 23.4171C10.1429 23.5841 10.0371 23.8107 10.0371 24.0469C10.0371 24.2831 10.1429 24.5096 10.3311 24.6766C10.5193 24.8437 10.7746 24.9375 11.0408 24.9375Z" fill="#1580FF"/>
<path d="M11.0408 32.0625H37.1376C37.4038 32.0625 37.6591 31.9687 37.8473 31.8016C38.0355 31.6346 38.1413 31.4081 38.1413 31.1719C38.1413 30.9357 38.0355 30.7091 37.8473 30.5421C37.6591 30.3751 37.4038 30.2812 37.1376 30.2812H11.0408C10.7746 30.2812 10.5193 30.3751 10.3311 30.5421C10.1429 30.7091 10.0371 30.9357 10.0371 31.1719C10.0371 31.4081 10.1429 31.6346 10.3311 31.8016C10.5193 31.9687 10.7746 32.0625 11.0408 32.0625Z" fill="#1580FF"/>
<path d="M11.0408 17.8125H23.0855C23.3517 17.8125 23.607 17.7187 23.7952 17.5516C23.9834 17.3846 24.0892 17.1581 24.0892 16.9219C24.0892 16.6857 23.9834 16.4591 23.7952 16.2921C23.607 16.1251 23.3517 16.0312 23.0855 16.0312H11.0408C10.7746 16.0312 10.5193 16.1251 10.3311 16.2921C10.1429 16.4591 10.0371 16.6857 10.0371 16.9219C10.0371 17.1581 10.1429 17.3846 10.3311 17.5516C10.5193 17.7187 10.7746 17.8125 11.0408 17.8125Z" fill="#1580FF"/>
<path d="M11.0408 39.1875H37.1376C37.4038 39.1875 37.6591 39.0937 37.8473 38.9266C38.0355 38.7596 38.1413 38.5331 38.1413 38.2969C38.1413 38.0607 38.0355 37.8341 37.8473 37.6671C37.6591 37.5001 37.4038 37.4062 37.1376 37.4062H11.0408C10.7746 37.4062 10.5193 37.5001 10.3311 37.6671C10.1429 37.8341 10.0371 38.0607 10.0371 38.2969C10.0371 38.5331 10.1429 38.7596 10.3311 38.9266C10.5193 39.0937 10.7746 39.1875 11.0408 39.1875Z" fill="#1580FF"/>
<path d="M11.0408 46.3125H37.1376C37.4038 46.3125 37.6591 46.2187 37.8473 46.0516C38.0355 45.8846 38.1413 45.6581 38.1413 45.4219C38.1413 45.1857 38.0355 44.9591 37.8473 44.7921C37.6591 44.6251 37.4038 44.5312 37.1376 44.5312H11.0408C10.7746 44.5312 10.5193 44.6251 10.3311 44.7921C10.1429 44.9591 10.0371 45.1857 10.0371 45.4219C10.0371 45.6581 10.1429 45.8846 10.3311 46.0516C10.5193 46.2187 10.7746 46.3125 11.0408 46.3125Z" fill="#1580FF"/>
</g>
<defs>
<clipPath id="clip0_235_1272">
<rect width="48.1786" height="57" fill="white"/>
</clipPath>
</defs>
</svg>
