<svg width="21" height="11" viewBox="0 0 21 11" fill="none" xmlns="http://www.w3.org/2000/svg">
<path d="M17.4262 6.30771C17.0867 5.92271 17.1838 5.75143 17.4262 5.40729C17.4306 5.40336 20.2333 1.92579 20.5221 0.746428L20.5238 0.745643C20.6673 0.315857 20.5238 0 19.8299 0H17.5339C16.9493 0 16.6798 0.271071 16.5354 0.574357C16.5354 0.574357 15.3664 3.08707 13.7126 4.71586C13.1788 5.1865 12.9321 5.33736 12.6407 5.33736C12.4972 5.33736 12.2741 5.1865 12.2741 4.75671V0.745643C12.2741 0.230214 12.1104 0 11.6265 0H8.01615C7.64952 0 7.43163 0.240429 7.43163 0.464357C7.43163 0.953071 8.25854 1.06543 8.34429 2.44043V5.42379C8.34429 6.0775 8.21216 6.19771 7.91902 6.19771C7.1385 6.19771 5.24406 3.67479 4.12139 0.787286C3.89476 0.227071 3.67338 0.000785657 3.08448 0.000785657H0.787527C0.13213 0.000785657 0 0.271857 0 0.575143C0 1.111 0.780527 3.77536 3.62963 7.29536C5.52844 9.69807 8.20253 11 10.6351 11C12.0973 11 12.2758 10.7109 12.2758 10.2135C12.2758 7.91764 12.1437 7.70079 12.8761 7.70079C13.2156 7.70079 13.8001 7.85164 15.1652 9.01057C16.7253 10.3848 16.9817 11 17.855 11H20.1511C20.8056 11 21.1372 10.7109 20.9465 10.1404C20.5098 8.94064 17.5592 6.47271 17.4262 6.30771Z" fill="#33CCFF"/>
</svg>
