<svg width="40" height="40" viewBox="0 0 40 40" fill="none" xmlns="http://www.w3.org/2000/svg">
<path d="M33.3332 36.6667H29.9998V33.3334C29.9998 32.0073 29.4731 30.7356 28.5354 29.7979C27.5977 28.8602 26.3259 28.3334 24.9998 28.3334H14.9998C13.6738 28.3334 12.402 28.8602 11.4643 29.7979C10.5266 30.7356 9.99984 32.0073 9.99984 33.3334V36.6667H6.6665V33.3334C6.6665 31.1233 7.54448 29.0037 9.10728 27.4409C10.6701 25.8781 12.7897 25.0001 14.9998 25.0001H24.9998C27.21 25.0001 29.3296 25.8781 30.8924 27.4409C32.4552 29.0037 33.3332 31.1233 33.3332 33.3334V36.6667ZM19.9998 21.6667C18.6866 21.6667 17.3863 21.4081 16.173 20.9055C14.9597 20.403 13.8574 19.6664 12.9288 18.7378C12.0002 17.8092 11.2636 16.7068 10.761 15.4936C10.2585 14.2803 9.99984 12.98 9.99984 11.6667C9.99984 10.3535 10.2585 9.05317 10.761 7.83991C11.2636 6.62666 12.0002 5.52427 12.9288 4.59568C13.8574 3.66709 14.9597 2.9305 16.173 2.42795C17.3863 1.92541 18.6866 1.66675 19.9998 1.66675C22.652 1.66675 25.1955 2.72032 27.0709 4.59568C28.9463 6.47104 29.9998 9.01458 29.9998 11.6667C29.9998 14.3189 28.9463 16.8625 27.0709 18.7378C25.1955 20.6132 22.652 21.6667 19.9998 21.6667ZM19.9998 18.3334C21.7679 18.3334 23.4636 17.631 24.7139 16.3808C25.9641 15.1306 26.6665 13.4349 26.6665 11.6667C26.6665 9.89864 25.9641 8.20294 24.7139 6.9527C23.4636 5.70246 21.7679 5.00008 19.9998 5.00008C18.2317 5.00008 16.536 5.70246 15.2858 6.9527C14.0355 8.20294 13.3332 9.89864 13.3332 11.6667C13.3332 13.4349 14.0355 15.1306 15.2858 16.3808C16.536 17.631 18.2317 18.3334 19.9998 18.3334Z" fill="#1580FF" fill-opacity="0.2"/>
</svg>
