<svg width="642" height="642" viewBox="0 0 642 642" fill="none" xmlns="http://www.w3.org/2000/svg">
<g style="mix-blend-mode:overlay">
<path fill-rule="evenodd" clip-rule="evenodd" d="M439.603 215.584C429.567 206.825 415.132 207.025 406.849 209.569C412.276 202.938 424.911 197.5 428.635 196.84C431.471 197.898 439.602 206.217 439.602 215.583L439.603 215.584ZM471.649 179.313C465.049 144.167 382.991 167.454 341.667 152.526C340.875 162.771 354.389 179.188 367.315 185.264C345.219 204.352 325.382 242.811 321.379 289.796C317.389 242.811 297.551 204.352 275.456 185.264C288.381 179.188 301.906 162.771 301.104 152.526C259.78 167.454 177.721 144.167 171.109 179.313C169.718 186.751 173.313 198.088 177.198 201.346C177.892 198.989 181.52 191.278 192.958 189.549C250.771 180.854 299.038 269.546 255.469 305.406C254.806 305.951 255.178 306.958 256.078 306.958H386.701C387.59 306.958 387.965 305.951 387.312 305.406C343.731 269.546 391.999 180.854 449.81 189.549C461.26 191.278 464.875 198.989 465.572 201.345C469.456 198.088 473.051 186.753 471.649 179.313ZM485.71 98.6459C484.672 95.3255 518.569 95.2424 518.569 116.361C518.569 130.516 498.294 137.22 498.294 151.908C498.294 158.749 505.687 163.767 507.956 163.767C502.733 140.185 524.328 152.526 530.158 156.936C518.57 125.223 544.658 125.424 542.089 110.883C540.302 100.72 517.629 103.79 509.422 98.6459C494.86 89.5215 477.634 54.0168 466.28 89.5215C487.445 109.082 475.129 137.869 448.262 137.869C448.262 137.869 448.111 142.091 448.357 142.426C480.404 140.864 491.575 117.42 485.711 98.6459H485.71ZM111.831 156.936C117.664 152.526 139.255 140.185 134.046 163.767C136.302 163.767 143.696 158.749 143.696 151.908C143.696 137.22 123.419 130.516 123.419 116.361C123.419 95.2414 157.317 95.3255 156.279 98.6459C150.426 117.419 161.598 140.865 193.643 142.426C193.879 142.091 193.729 137.869 193.729 137.869C166.872 137.869 154.556 109.08 175.711 89.5215C164.357 54.0168 147.13 89.5215 132.568 98.6459C124.362 103.791 101.688 100.72 99.901 110.883C97.3426 125.424 123.418 125.224 111.83 156.936H111.831ZM202.824 215.583C212.87 206.824 227.305 207.024 235.578 209.568C230.173 202.937 217.516 197.499 213.802 196.839C210.967 197.897 202.825 206.216 202.825 215.582L202.824 215.583ZM336.627 18.9726L320.994 0L305.362 18.9726L320.995 38.9402L336.629 18.9726H336.627ZM425.865 76.3418L414.748 62.8579L403.641 76.3418L414.748 89.5205L425.865 76.3418ZM516.034 466.08L501.942 451.235L487.85 466.08L501.942 479.102L516.034 466.078V466.08ZM238.358 76.3398L227.24 62.8559L216.134 76.3398L227.24 89.5195L238.357 76.3398H238.358ZM206.515 142.424H247.977C282.837 142.424 298.524 121.126 303.264 102.656H338.735C343.475 121.127 359.149 142.425 394.022 142.425H435.485C435.485 142.425 442.738 132.63 444.556 127.78C451.106 110.326 442.738 102.186 430.529 102.186L414.746 116.423L398.964 102.186C386.755 102.186 378.388 110.326 384.937 127.78C385.772 130.012 387.773 133.29 389.666 136.171C374.953 134.159 356.175 124.134 352.055 102.656C352.055 102.656 362.926 85.4653 365.655 78.5091C375.457 53.4932 362.938 43.2667 344.63 43.2667L320.993 70.9252L297.358 43.2667C279.051 43.2667 266.531 53.4922 276.344 78.5091C279.063 85.4663 289.944 102.657 289.944 102.657C285.814 124.135 267.035 134.16 252.323 136.172C254.227 133.291 256.218 130.012 257.052 127.781C263.589 110.327 255.244 102.187 243.023 102.187L227.242 116.424L211.46 102.187C199.242 102.187 190.895 110.327 197.434 127.781C199.252 132.631 206.518 142.426 206.518 142.426L206.515 142.424ZM635.188 270.361C627.183 274.395 580.233 296.29 520.088 288.192C520.711 285.336 521.239 282.46 521.672 279.57C561.7 274.803 594.239 268.046 614.976 256.564C638.612 243.468 648.948 212.208 637.017 188.95C636.709 188.364 635.853 188.259 635.424 188.75C628.888 196.242 587.777 240.756 523.01 254.594C522.844 251.255 522.537 247.924 522.09 244.611C553.547 226.852 584.257 206.391 598.884 187.682C620.991 159.395 618.957 123.315 597.922 104.918C597.703 104.732 597.415 104.648 597.13 104.688C596.845 104.729 596.591 104.889 596.433 105.129C589.779 116.055 527.484 216.281 459.089 259.548C458.255 260.08 457.413 260.6 456.565 261.11C454.606 262.294 454.393 264.829 456.062 266.337C463.947 273.45 468.848 283.351 468.848 294.341C468.848 313.449 454.05 329.341 434.49 332.788C424.55 334.705 410.2 334.149 396.419 329.614C395.798 329.414 395.157 329.823 395.157 330.441V390.964C395.157 391.937 396.645 392.178 396.997 391.244C405.374 369.151 430.455 364.456 441.423 364.456C445.371 388.071 452.422 407.631 461.581 418.159C476.495 435.267 500.85 435.026 511.411 423.198C511.585 423.002 511.66 422.738 511.614 422.48C511.568 422.223 511.406 422.001 511.175 421.877C504.97 418.327 469.467 396.631 462.361 361.074C465.167 360.11 467.904 359.02 470.527 357.73C481.986 376.61 498.667 393.424 512.095 399.846C534.652 410.617 555.302 405.378 564.461 389.611C564.793 389.056 564.387 388.364 563.712 388.302C549.759 387.191 506.938 374.975 488.705 345.213C490.792 343.305 492.836 341.314 494.741 339.198C513.818 353.655 540.794 366.436 560.108 369.045C582.704 372.104 608.31 364.928 608.932 338.769C608.942 338.244 608.471 337.815 607.916 337.848C599.879 338.328 546.689 340.634 508.789 318.978C510.106 316.487 511.334 313.95 512.47 311.373C512.47 311.373 569.738 324.846 596.872 320.382C623.836 315.951 639.63 295.942 636.58 271.051C636.494 270.43 635.767 270.065 635.189 270.358L635.188 270.361ZM129.517 311.376C130.657 313.953 131.888 316.49 133.208 318.981C95.3203 340.626 42.1518 338.341 34.0845 337.851C33.5174 337.818 33.0467 338.268 33.0568 338.782C33.6903 364.931 59.284 372.106 81.8809 369.048C101.185 366.439 128.171 353.658 147.248 339.201C149.164 341.317 151.197 343.308 153.282 345.215C135.039 374.975 92.229 387.192 78.2756 388.303C77.6018 388.365 77.2056 389.057 77.5274 389.612C86.6868 405.379 107.338 410.617 129.904 399.847C143.323 393.425 160.003 376.611 171.464 357.733C174.095 359.021 176.834 360.111 179.627 361.075C172.522 396.632 137.019 418.328 130.813 421.878C130.583 422.004 130.424 422.226 130.378 422.482C130.332 422.739 130.406 423.002 130.577 423.199C141.139 435.027 165.503 435.268 180.417 418.16C189.578 407.631 196.618 388.072 200.566 364.458C211.544 364.458 236.613 369.153 244.992 391.246C245.356 392.179 246.842 391.937 246.842 390.964V330.441C246.842 329.824 246.19 329.415 245.57 329.614C231.788 334.149 217.44 334.706 207.51 332.788C187.94 329.342 173.142 313.45 173.142 294.341C173.142 283.35 178.053 273.439 185.928 266.326C187.607 264.828 187.383 262.292 185.435 261.109C184.58 260.599 183.731 260.078 182.889 259.547C114.537 216.302 52.2736 116.149 45.565 105.148C45.2532 104.634 44.505 104.53 44.0444 104.927C23.0405 123.334 20.9971 159.404 43.1032 187.68C57.7303 206.389 88.4377 226.85 119.886 244.609C119.443 247.922 119.139 251.252 118.977 254.591C54.2638 240.763 13.1862 196.321 6.58416 188.779C6.14569 188.265 5.26676 188.371 4.96808 188.957C-6.93876 212.225 3.39626 243.465 27.0118 256.561C47.7482 268.043 80.2869 274.8 120.316 279.567C120.748 282.457 121.276 285.333 121.899 288.189C61.8182 296.277 14.8878 274.434 6.82048 270.368C6.22112 270.065 5.49303 270.442 5.41861 271.071C2.38156 295.963 18.1622 315.951 45.1265 320.382C72.2508 324.846 129.517 311.373 129.517 311.373V311.376ZM501.941 498.221L481.076 481.878C472.751 486.813 466.631 494.651 464.255 503.837C451.705 505.587 417.485 498.023 420.812 493.006C458.316 440.498 429.629 409.237 395.155 410.975V446.24C395.155 457.565 385.225 466.741 372.994 466.741H349.188C332.111 466.741 320.993 483.829 320.993 483.829C320.993 483.829 309.878 466.741 292.8 466.741H268.992C256.754 466.741 246.845 457.565 246.845 446.24V410.976C212.369 409.239 183.66 440.5 221.176 493.007C224.471 497.972 189.3 505.924 172.801 503.912C168.457 499.428 162.186 496.6 155.166 496.6C152.182 496.601 149.222 497.129 146.424 498.161C146.424 498.161 81.5943 437.063 80.4066 436.466L80.9416 435.229C84.6323 428.357 78.9836 420.867 75.4105 421.391C79.5608 416.436 79.7549 394.739 56.7277 389.72C57.4014 394.079 57.7434 402.974 57.7434 402.974C57.7434 402.974 39.9716 393.408 31.0475 401.663C23.2055 410.904 34.0876 427.666 34.0876 427.666C34.0876 427.666 24.9925 427.886 20.5093 427.508C27.1013 449.697 49.2074 448.126 53.9903 443.747C53.6785 447.278 61.6734 452.306 68.4454 448.272L71.4201 446.837C71.9451 447.538 135.086 506.919 135.086 506.919C132.185 511.204 130.806 516.463 131.757 522.068C133.255 530.827 140.586 538.087 149.949 539.972C156.56 541.293 162.777 540.014 167.763 537.112L184.477 552.555C185.965 553.896 187.976 554.733 190.222 554.577C194.31 554.303 197.37 551.003 197.06 547.222C196.932 545.514 196.055 544.049 194.845 542.938C194.578 542.643 177.821 527.159 177.821 527.159C191.644 517.509 217.4 510.712 238.778 510.712C242.534 510.712 244.299 507.549 243.004 504.446C233.32 481.262 254.143 464.47 275.682 478.141C285.078 484.102 294.622 495.846 301.812 515.436C266.47 523.955 222.098 547.419 213.121 573.036C209.664 582.926 221.081 596.408 234.948 599.123C235.194 599.177 235.451 599.13 235.662 598.995C235.873 598.859 236.02 598.644 236.071 598.399C243.316 560.159 284.628 531.663 306.125 526.823C307.206 529.704 306.852 528.772 307.933 531.642C284.521 542.663 261.816 565.91 255.332 593.546C252.357 606.202 266.534 617.611 278.24 620.734C278.828 620.89 279.407 620.482 279.439 619.916C281.664 584.967 297.168 555.287 311.056 541.784C311.437 544.423 311.723 547.075 311.913 549.735C311.913 549.735 297.693 589.178 297.693 617.957C297.693 631.345 317.681 640.691 320.634 642C324.325 640.691 344.302 631.345 344.302 617.957C344.302 589.177 330.082 549.735 330.082 549.735C330.276 547.075 330.565 544.423 330.949 541.784C344.827 555.287 360.341 584.956 362.557 619.904C362.589 620.471 363.177 620.89 363.753 620.733C375.471 617.612 389.639 606.203 386.674 593.548C380.177 565.911 357.484 542.665 334.072 531.644C335.142 528.773 334.789 529.705 335.87 526.824C357.377 531.664 398.679 560.159 405.923 598.398C405.975 598.643 406.123 598.856 406.334 598.992C406.545 599.128 406.802 599.175 407.047 599.122C420.903 596.409 432.341 582.925 428.864 573.037C419.909 547.42 375.524 523.956 340.183 515.437C347.383 495.847 356.927 484.103 366.322 478.142C387.851 464.471 408.672 481.265 398.989 504.449C397.694 507.549 399.449 510.712 403.216 510.712C427.397 510.712 457.185 519.408 468.975 531.068C476.509 542.32 490.429 549.517 506.138 547.976C523.985 546.238 538.537 532.89 540.549 516.391C542.304 501.933 534.792 488.953 522.819 481.882L501.942 498.226L501.941 498.221ZM348.15 392.902C355.586 390.159 367.239 392.379 366.843 403.064C366.747 405.484 370.161 405.484 370.407 403.011C372.632 387.015 361.771 382.404 350.408 384.28C348.996 378.779 347.841 373.971 346.525 369.204C345.477 365.35 345.09 358.11 349.575 358.11C351.993 358.11 351.02 364.847 350.796 367.748C350.591 370.293 351.512 371.834 353.588 371.907C354.883 371.959 356.5 370.315 357.462 369.224C363.968 361.902 365.477 350.567 357.858 345.099C351.482 340.51 335.517 343.925 331.128 350.462C330.466 347.999 327.299 343.935 325.778 342.163C324.303 340.437 323.918 339.252 325.961 337.734C326.924 337 329.835 334.12 329.835 331.144C329.835 329.384 328.465 326.136 324.111 326.136C320.675 326.136 316.856 328.504 316.856 333.784C316.856 334.958 317.145 336.216 317.904 337.568C315.732 337.21 309.837 337.357 306.809 338.101L348.678 452.471C360.662 446.583 369.446 437.26 369.446 427.255C369.446 418.726 356.829 421.555 350.699 428.208C348.73 417.397 346.975 407.413 345.06 397.459C344.537 394.715 345.938 393.731 348.153 392.903L348.15 392.902ZM288.947 315.212L297.743 339.537C290.21 341.318 278.098 346.786 278.098 354.025C278.098 363.665 295.229 369.939 305.137 369.184C304.644 371.384 305.213 373.344 306.753 375.134C303.158 375.134 296.375 376.8 294.148 379.189C288.895 374.318 280.677 372.547 276.771 375.512C272.845 378.498 272.728 383.558 276.825 389.278C279.681 393.238 280.752 397.146 277.542 401.734C289.483 401.734 285.085 386.282 289.761 386.282C289.151 389.278 289.526 392.746 290.885 396.591C291.784 399.146 291.784 400.959 290.244 403.421C286.392 409.55 280.4 423.629 281.213 436.359C277.297 436.337 275.307 435.383 276.687 430.062C277.2 428.08 275.97 426.667 274.344 429.108C272.546 431.801 271.679 436.4 271.679 438.368C271.679 449.704 285.246 451.988 290.425 449.589C305.406 464.019 334.831 460.17 344.685 455.33L292.876 313.826C291.816 311.155 288.019 312.433 288.949 315.21L288.947 315.212ZM287.149 431.77C286.079 425.944 294.222 415.531 304.58 405.485C302.376 412.031 303.745 423.315 308.068 427.202C300.555 427.202 291.631 428.606 287.149 431.77Z" fill="white" fill-opacity="0.18"/>
</g>
</svg>
