<svg width="28" height="36" viewBox="0 0 28 36" fill="none" xmlns="http://www.w3.org/2000/svg">
<path d="M27.3332 35.6667H23.9998V32.3334C23.9998 31.0073 23.4731 29.7355 22.5354 28.7978C21.5977 27.8601 20.3259 27.3334 18.9998 27.3334H8.99984C7.67375 27.3334 6.40198 27.8601 5.4643 28.7978C4.52662 29.7355 3.99984 31.0073 3.99984 32.3334V35.6667H0.666504V32.3334C0.666504 30.1232 1.54448 28.0036 3.10728 26.4408C4.67008 24.878 6.7897 24 8.99984 24H18.9998C21.21 24 23.3296 24.878 24.8924 26.4408C26.4552 28.0036 27.3332 30.1232 27.3332 32.3334V35.6667ZM13.9998 20.6667C12.6866 20.6667 11.3863 20.408 10.173 19.9055C8.95975 19.4029 7.85735 18.6663 6.92877 17.7378C6.00018 16.8092 5.26359 15.7068 4.76104 14.4935C4.25849 13.2803 3.99984 11.9799 3.99984 10.6667C3.99984 9.35347 4.25849 8.05311 4.76104 6.83985C5.26359 5.6266 6.00018 4.5242 6.92877 3.59562C7.85735 2.66703 8.95975 1.93044 10.173 1.42789C11.3863 0.925345 12.6866 0.666687 13.9998 0.666687C16.652 0.666687 19.1955 1.72026 21.0709 3.59562C22.9463 5.47098 23.9998 8.01452 23.9998 10.6667C23.9998 13.3189 22.9463 15.8624 21.0709 17.7378C19.1955 19.6131 16.652 20.6667 13.9998 20.6667ZM13.9998 17.3334C15.7679 17.3334 17.4636 16.631 18.7139 15.3807C19.9641 14.1305 20.6665 12.4348 20.6665 10.6667C20.6665 8.89858 19.9641 7.20288 18.7139 5.95264C17.4636 4.7024 15.7679 4.00002 13.9998 4.00002C12.2317 4.00002 10.536 4.7024 9.28579 5.95264C8.03555 7.20288 7.33317 8.89858 7.33317 10.6667C7.33317 12.4348 8.03555 14.1305 9.28579 15.3807C10.536 16.631 12.2317 17.3334 13.9998 17.3334Z" fill="#1580FF" fill-opacity="0.2"/>
</svg>
