<svg width="176" height="35" viewBox="0 0 176 35" fill="none" xmlns="http://www.w3.org/2000/svg">
<path d="M59.4846 14.5111V12.5295H47.416V1.52686H51.6439V9.47479H56.7661V1.52686H60.9797V9.47479H63.269V14.4825L59.4846 14.5111Z" fill="white"/>
<path d="M64.8857 12.5295V1.52686H76.7039V4.58871H69.1137V5.5831H75.7167V8.38025H69.1137V9.46764H76.9829V12.5295H64.8857Z" fill="white"/>
<path d="M88.3863 12.5295V8.4661H83.0639V12.5295H78.8359V1.52686H83.0639V5.41856H88.3863V1.52686H92.6V12.5295H88.3863Z" fill="white"/>
<path d="M98.4939 12.5295V4.66025H93.9941V1.52686H107.214V4.6674H102.715V12.5366L98.4939 12.5295Z" fill="white"/>
<path d="M108.61 12.5295V1.52686H114.963C115.471 1.52686 115.979 1.52686 116.487 1.52686C116.983 1.55333 117.478 1.61067 117.968 1.69855C118.425 1.78542 118.873 1.91721 119.305 2.09201C119.709 2.2602 120.078 2.50288 120.393 2.8074C120.704 3.1137 120.948 3.48164 121.108 3.88763C121.3 4.37976 121.392 4.9049 121.38 5.43286C121.4 6.10926 121.261 6.78091 120.972 7.39302C120.713 7.91405 120.326 8.36168 119.849 8.69502C119.337 9.0382 118.764 9.28096 118.161 9.41041C117.47 9.5637 116.765 9.6381 116.058 9.63218H112.738V12.4937L108.61 12.5295ZM115.535 6.67764C115.724 6.67682 115.911 6.65279 116.093 6.6061C116.257 6.56231 116.412 6.48963 116.551 6.39148C116.677 6.29406 116.78 6.16934 116.852 6.02663C116.926 5.86286 116.963 5.68434 116.959 5.5044C116.964 5.33498 116.925 5.16712 116.844 5.01794C116.768 4.88999 116.659 4.78403 116.53 4.71032C116.389 4.63299 116.237 4.57979 116.079 4.55294C115.899 4.52387 115.717 4.50951 115.535 4.51002H112.752V6.65617L115.535 6.67764Z" fill="white"/>
<path d="M53.5399 27.8249V26.5515H53.4684C52.4236 26.565 51.3803 26.4666 50.3565 26.2582C49.5884 26.1028 48.8589 25.7964 48.2103 25.3568C47.6414 24.9608 47.1952 24.413 46.9226 23.7758C46.6268 23.0396 46.4832 22.2511 46.5005 21.4579C46.477 20.6666 46.6208 19.8792 46.9226 19.1472C47.1972 18.5112 47.643 17.9638 48.2103 17.5662C48.8706 17.1205 49.6159 16.816 50.3994 16.672C51.4307 16.4656 52.4811 16.3697 53.5328 16.3858V15.0981H57.7607V16.3787H57.9467C58.9678 16.3652 59.9874 16.4636 60.9871 16.672C61.7571 16.8287 62.4873 17.1403 63.1333 17.5877C63.6851 17.9895 64.1178 18.5334 64.3852 19.1615C64.6731 19.8896 64.8117 20.6681 64.793 21.4508C64.8123 22.2405 64.6736 23.0261 64.3852 23.7615C64.1219 24.3959 63.6887 24.9455 63.1333 25.3496C62.4895 25.7996 61.7583 26.1091 60.9871 26.2582C59.9779 26.4675 58.9487 26.5659 57.9181 26.5515H57.7822V27.8249H53.5399ZM53.5399 19.5192H53.4899C53.0581 19.5112 52.6266 19.5472 52.2022 19.6265C51.9133 19.6815 51.6399 19.7986 51.4009 19.9699C51.2073 20.1199 51.0669 20.328 51.0003 20.5637C50.9195 20.8547 50.8809 21.1559 50.8858 21.4579C50.8806 21.7605 50.9216 22.062 51.0075 22.3522C51.0758 22.589 51.2157 22.7989 51.4081 22.9531C51.6454 23.1273 51.9195 23.2448 52.2093 23.2965C52.6314 23.3759 53.0605 23.4118 53.4899 23.4038H53.5399V19.5192ZM57.7679 19.5192V23.3966H57.8251C58.2475 23.399 58.6691 23.3606 59.0842 23.2822C59.3658 23.2322 59.631 23.1143 59.8568 22.9388C60.0428 22.7817 60.1774 22.5723 60.2431 22.3379C60.3718 21.7559 60.3718 21.1528 60.2431 20.5708C60.1842 20.3389 60.0541 20.1312 59.8711 19.9771C59.6631 19.8093 59.4177 19.6939 59.1557 19.6408C58.7483 19.5586 58.3337 19.5179 57.9181 19.5192H57.7679Z" fill="white"/>
<path d="M66.2158 26.9663V15.9565H69.9716V20.814L69.9144 21.9801L70.6727 21.2075L75.7734 15.9565H80.0085V26.9663H76.2527V22.116L76.3028 20.9356L75.5373 21.7226L70.3579 26.9663H66.2158Z" fill="white"/>
<path d="M91.9772 26.9663V22.8886H86.6547V26.9663H82.4268V15.9565H86.6547V19.8554H91.9772V15.9565H96.1836V26.9663H91.9772Z" fill="white"/>
<path d="M108.259 25.2423H102.536L101.821 26.9663H97.457L102.865 15.9565H108.109L113.539 26.9663H109.018L108.259 25.2423ZM103.731 22.488H107.043L105.384 18.675L103.731 22.488Z" fill="white"/>
<path d="M124.341 26.9663V22.8886H119.026V26.9663H114.798V15.9565H119.026V19.8554H124.341V15.9565H128.555V26.9663H124.341Z" fill="white"/>
<path d="M145.016 22.9456C144.762 23.9421 144.207 24.8363 143.428 25.5067C143.051 25.8348 142.635 26.1159 142.19 26.3437C141.731 26.573 141.252 26.7598 140.759 26.9017C140.263 27.0463 139.756 27.1516 139.243 27.2165C138.735 27.2812 138.224 27.3146 137.712 27.3166C136.62 27.3324 135.531 27.1927 134.478 26.9017C133.609 26.6673 132.79 26.2771 132.06 25.7499C131.419 25.2629 130.9 24.6335 130.544 23.9114C130.186 23.166 130.005 22.3485 130.014 21.522C130.003 20.6838 130.184 19.8542 130.544 19.0968C130.894 18.3693 131.408 17.7327 132.046 17.2368C132.759 16.6954 133.567 16.2926 134.428 16.0493C135.449 15.7594 136.507 15.6196 137.569 15.6344C138.102 15.6332 138.635 15.6643 139.164 15.7274C139.693 15.7974 140.217 15.905 140.731 16.0493C141.222 16.1978 141.701 16.3869 142.161 16.6144C142.61 16.8332 143.029 17.1097 143.406 17.4371C144.191 18.106 144.747 19.0042 144.994 20.0054L140.702 20.3273C140.618 20.0322 140.463 19.762 140.251 19.5404C140.045 19.3395 139.802 19.1793 139.536 19.0682C139.27 18.9511 138.988 18.874 138.699 18.8393C138.417 18.7973 138.133 18.7758 137.848 18.7749C137.365 18.7681 136.884 18.8259 136.417 18.9466C136.024 19.0449 135.654 19.2199 135.329 19.4617C135.025 19.6741 134.779 19.9594 134.614 20.2915C134.444 20.641 134.358 21.0258 134.364 21.4147C134.358 21.8181 134.446 22.2174 134.621 22.5808C134.791 22.9215 135.036 23.2198 135.337 23.4535C135.664 23.7019 136.035 23.8864 136.431 23.9972C136.882 24.1279 137.35 24.1905 137.819 24.1832C138.142 24.1821 138.465 24.1558 138.785 24.1045C139.068 24.0688 139.345 23.9941 139.607 23.8828C139.857 23.7694 140.083 23.6091 140.273 23.4106C140.475 23.1814 140.624 22.9102 140.709 22.6165L145.016 22.9456Z" fill="white"/>
<path d="M153.3 27.3168C152.206 27.3321 151.115 27.1925 150.06 26.9019C149.178 26.6724 148.346 26.2819 147.606 25.7501C146.952 25.2635 146.421 24.6316 146.053 23.9044C145.682 23.143 145.496 22.3048 145.51 21.4578C145.494 20.6347 145.676 19.82 146.043 19.0826C146.409 18.3453 146.948 17.7073 147.613 17.2227C148.352 16.6769 149.187 16.2741 150.074 16.0352C151.137 15.7447 152.235 15.605 153.336 15.6203C154.426 15.6059 155.512 15.7456 156.562 16.0352C157.445 16.2756 158.274 16.6784 159.009 17.2227C159.659 17.7127 160.19 18.3438 160.561 19.0684C160.933 19.8096 161.122 20.6288 161.112 21.4578C161.122 22.2952 160.936 23.1233 160.569 23.8758C160.205 24.6134 159.673 25.2554 159.016 25.7501C158.277 26.2959 157.443 26.6987 156.555 26.9377C155.493 27.2156 154.398 27.3432 153.3 27.3168ZM153.3 24.162C153.784 24.1706 154.267 24.1055 154.731 23.9688C155.119 23.8556 155.481 23.6685 155.797 23.418C156.079 23.177 156.304 22.8759 156.455 22.5367C156.606 22.1976 156.68 21.8289 156.67 21.4578C156.674 21.0784 156.595 20.7026 156.441 20.3561C156.284 20.0251 156.054 19.734 155.768 19.5048C155.45 19.2569 155.089 19.0701 154.702 18.954C153.781 18.6964 152.806 18.6964 151.884 18.954C151.497 19.0712 151.135 19.2605 150.818 19.512C150.532 19.7394 150.304 20.0311 150.153 20.3633C149.995 20.7103 149.913 21.0872 149.913 21.4685C149.913 21.8499 149.995 22.2268 150.153 22.5738C150.307 22.9061 150.538 23.1976 150.825 23.4251C151.142 23.6744 151.504 23.8613 151.891 23.976C152.353 24.1105 152.833 24.1732 153.315 24.162H153.3Z" fill="white"/>
<path d="M172.408 21.2433L173.123 21.2862C173.396 21.3087 173.666 21.3518 173.932 21.415C174.197 21.4761 174.455 21.5624 174.704 21.6725C174.949 21.7822 175.172 21.9348 175.362 22.1232C175.562 22.3126 175.721 22.5416 175.827 22.7957C175.948 23.0979 176.007 23.4216 175.999 23.7471C176.004 24.1923 175.9 24.6319 175.695 25.0273C175.491 25.4228 175.192 25.7619 174.826 26.0149C174.37 26.3432 173.859 26.5857 173.316 26.7303C172.604 26.9138 171.87 27.0005 171.134 26.9878H162.55V15.9566H170.977C171.585 15.955 172.192 15.9956 172.794 16.0782C173.311 16.1452 173.813 16.295 174.282 16.5217C174.684 16.7177 175.029 17.0133 175.284 17.3802C175.538 17.7949 175.664 18.2749 175.649 18.7609C175.657 19.0659 175.606 19.3696 175.498 19.6551C175.407 19.8908 175.268 20.1051 175.091 20.2847C174.92 20.4507 174.725 20.5883 174.511 20.6924C174.281 20.796 174.041 20.8774 173.796 20.9357C173.561 20.9976 173.322 21.043 173.08 21.0716L172.365 21.1431L172.408 21.2433ZM170.355 20.206C170.575 20.211 170.793 20.1486 170.977 20.0271C171.066 19.9589 171.136 19.8694 171.181 19.7669C171.226 19.6643 171.245 19.5521 171.235 19.4405C171.239 19.3173 171.215 19.1947 171.163 19.0828C171.124 18.9867 171.056 18.9045 170.97 18.8467C170.889 18.7814 170.793 18.7372 170.691 18.718C170.574 18.6887 170.454 18.6742 170.333 18.6751H166.685V20.2131L170.355 20.206ZM170.262 24.2551H170.698C170.843 24.2412 170.985 24.2075 171.12 24.1549C171.248 24.1012 171.359 24.0148 171.442 23.9045C171.529 23.763 171.572 23.5984 171.564 23.4324C171.575 23.2816 171.538 23.1311 171.458 23.0025C171.379 22.874 171.26 22.774 171.12 22.717C170.987 22.6578 170.844 22.6239 170.698 22.6168H170.283H166.685V24.3051L170.262 24.2551Z" fill="white"/>
<g style="mix-blend-mode:lighten" opacity="0.9">
<g style="mix-blend-mode:lighten" opacity="0.9">
<path d="M24.5879 23.0387L5.98782 19.8553C5.11648 19.7129 4.32397 19.2659 3.75145 18.5938C3.17894 17.9217 2.86359 17.0682 2.86158 16.1853V9.03148C2.86049 8.15069 3.17078 7.29787 3.7376 6.6237C4.30443 5.94953 5.09131 5.49742 5.9592 5.34725L20.2669 2.90778C20.7989 2.82193 21.3432 2.85246 21.8622 2.99726C22.3813 3.14206 22.8628 3.3977 23.2735 3.74654C23.6842 4.09538 24.0144 4.52914 24.2413 5.01791C24.4682 5.50668 24.5865 6.03884 24.5879 6.57771V23.0387Z" fill="#0099FF"/>
<path d="M27.4494 26.4654L5.47274 22.6739C3.93961 22.4162 2.54783 21.6224 1.54551 20.4341C0.54319 19.2457 -0.00451653 17.74 3.49264e-05 16.1853V9.03148C-0.00503571 7.47518 0.542162 5.96754 1.54428 4.77679C2.54639 3.58605 3.93843 2.78941 5.47274 2.52862L19.7805 0.0891583C20.7232 -0.0675347 21.6888 -0.017249 22.6102 0.236527C23.5316 0.490303 24.3868 0.941494 25.1164 1.5588C25.846 2.17611 26.4326 2.94475 26.8355 3.81141C27.2383 4.67807 27.4478 5.622 27.4494 6.57771V26.4654ZM20.8678 5.71925C20.8274 5.71503 20.7867 5.71503 20.7462 5.71925L6.43851 8.17302C6.23765 8.20697 6.05541 8.31124 5.92435 8.46719C5.7933 8.62315 5.72197 8.82063 5.72312 9.02433V16.1782C5.72197 16.3819 5.7933 16.5794 5.92435 16.7353C6.05541 16.8913 6.23765 16.9956 6.43851 17.0295L21.7263 19.6407V6.57771C21.7263 6.35003 21.6359 6.13168 21.4749 5.97069C21.3139 5.80969 21.0955 5.71925 20.8678 5.71925Z" fill="#0099FF"/>
</g>
</g>
<g style="mix-blend-mode:lighten" opacity="0.9">
<g style="mix-blend-mode:lighten" opacity="0.9">
<path d="M17.2406 31.2369L28.3219 29.7632C29.2164 29.6437 30.0372 29.2037 30.6319 28.5248C31.2266 27.8459 31.5547 26.9743 31.5554 26.0718V21.7795C31.5532 20.8775 31.2245 20.0067 30.6301 19.3281C30.0357 18.6496 29.2158 18.2091 28.3219 18.0881L21.4613 17.1653C20.9355 17.0949 20.4006 17.1378 19.8927 17.2911C19.3847 17.4445 18.9155 17.7047 18.5164 18.0543C18.1173 18.4039 17.7976 18.8349 17.5788 19.3182C17.36 19.8015 17.2471 20.3261 17.2477 20.8567V31.2298L17.2406 31.2369Z" fill="#33CCFF"/>
<path d="M14.379 34.5063V20.8638C14.3738 19.9227 14.5704 18.9914 14.9557 18.1328C15.341 17.2742 15.9059 16.5081 16.6124 15.8864C17.3189 15.2646 18.1505 14.8017 19.0512 14.5286C19.9518 14.2556 20.9005 14.1789 21.8333 14.3037L28.6939 15.2194C30.2751 15.432 31.7258 16.2099 32.7779 17.4093C33.8299 18.6086 34.4122 20.1484 34.417 21.7438V26.0361C34.4124 27.6323 33.8304 29.1729 32.7785 30.3735C31.7265 31.574 30.2757 32.3533 28.6939 32.5676L14.379 34.5063ZM20.9606 20.0268C20.752 20.0255 20.5505 20.102 20.3954 20.2414C20.3027 20.3226 20.2285 20.4227 20.1779 20.535C20.1272 20.6473 20.1014 20.7692 20.1021 20.8925V28.0034L27.9713 26.9589C28.1728 26.9234 28.3552 26.8177 28.4861 26.6606C28.6171 26.5035 28.6881 26.305 28.6867 26.1005V21.8081C28.6865 21.6048 28.6146 21.4081 28.4838 21.2524C28.353 21.0968 28.1716 20.9921 27.9713 20.9568L21.075 20.0268H20.9606Z" fill="#33CCFF"/>
</g>
</g>
</svg>
