<svg width="487" height="161" viewBox="0 0 487 161" fill="none" xmlns="http://www.w3.org/2000/svg">
<path d="M92.472 160.704C78.4667 160.704 66.4027 159.664 56.28 157.584C46.296 155.504 37.9067 152.8 31.112 149.472C24.3173 146.005 18.84 142.123 14.68 137.824C10.6587 133.525 7.53867 129.296 5.32 125.136C3.24 120.837 1.85333 116.747 1.16 112.864C0.605334 108.981 0.328 105.723 0.328 103.088V101.424H51.288C51.4267 102.395 51.8427 104.197 52.536 106.832C53.368 109.328 55.24 111.963 58.152 114.736C61.2027 117.371 65.7093 119.728 71.672 121.808C77.7733 123.888 86.1627 124.928 96.84 124.928C107.795 124.928 116.392 124.373 122.632 123.264C128.872 122.016 133.517 120.491 136.568 118.688C139.757 116.885 141.699 115.013 142.392 113.072C143.085 110.992 143.432 109.189 143.432 107.664C143.432 106.139 143.155 104.683 142.6 103.296C142.045 101.771 141.005 100.453 139.48 99.344C137.955 98.2347 135.736 97.3333 132.824 96.64C130.051 95.9467 126.376 95.6 121.8 95.6H67.096V59.616H119.304C123.603 59.616 127.069 59.3387 129.704 58.784C132.339 58.2293 134.349 57.4667 135.736 56.496C137.261 55.5253 138.232 54.416 138.648 53.168C139.203 51.92 139.48 50.672 139.48 49.424C139.48 48.0373 139.064 46.5813 138.232 45.056C137.539 43.392 135.597 41.936 132.408 40.688C129.357 39.3013 124.781 38.192 118.68 37.36C112.579 36.3893 104.259 35.904 93.72 35.904C83.32 35.904 75.2773 36.6667 69.592 38.192C64.0453 39.7173 59.8853 41.52 57.112 43.6C54.4773 45.5413 52.8827 47.4827 52.328 49.424C51.7733 51.3653 51.4267 52.752 51.288 53.584H0.744V51.504C0.744 49.1467 1.02133 46.304 1.576 42.976C2.13067 39.5093 3.37867 35.904 5.32 32.16C7.4 28.2773 10.312 24.464 14.056 20.72C17.9387 16.976 23.1387 13.648 29.656 10.736C36.1733 7.68533 44.2853 5.25866 53.992 3.45599C63.6987 1.51466 75.416 0.543994 89.144 0.543994H97.88C111.608 0.543994 123.464 1.16799 133.448 2.41599C143.432 3.52533 151.821 5.12 158.616 7.2C165.411 9.27999 170.888 11.6373 175.048 14.272C179.208 16.9067 182.397 19.7493 184.616 22.8C186.973 25.712 188.499 28.6933 189.192 31.744C189.885 34.7947 190.232 37.7067 190.232 40.48V41.728C190.232 45.7493 189.4 49.3547 187.736 52.544C186.072 55.5947 183.992 58.2293 181.496 60.448C179.139 62.528 176.504 64.2613 173.592 65.648C170.68 67.0347 167.976 68.0053 165.48 68.56C168.531 69.392 171.789 70.7093 175.256 72.512C178.723 74.3147 181.912 76.7413 184.824 79.792C187.736 82.8427 190.163 86.5867 192.104 91.024C194.045 95.3227 195.016 100.453 195.016 106.416V107.872C195.016 114.389 193.768 120.837 191.272 127.216C188.776 133.456 184.061 139.072 177.128 144.064C170.333 149.056 160.904 153.077 148.84 156.128C136.915 159.179 121.384 160.704 102.248 160.704H92.472ZM263.589 91.232C250.971 91.232 240.779 89.7067 233.013 86.656C225.387 83.4667 219.493 79.6533 215.333 75.216C211.173 70.7787 208.4 66.064 207.013 61.072C205.627 55.9413 204.933 51.504 204.933 47.76V44.224C204.933 40.3413 205.627 35.9733 207.013 31.12C208.4 26.128 211.173 21.4827 215.333 17.184C219.493 12.7467 225.387 9.00266 233.013 5.952C240.779 2.90133 250.971 1.376 263.589 1.376H268.581C281.2 1.376 291.323 2.90133 298.949 5.952C306.576 9.00266 312.469 12.7467 316.629 17.184C320.789 21.4827 323.563 26.128 324.949 31.12C326.336 35.9733 327.029 40.3413 327.029 44.224V47.76C327.029 50.256 326.752 53.0987 326.197 56.288C325.643 59.3387 324.603 62.528 323.077 65.856C321.552 69.0453 319.403 72.1653 316.629 75.216C313.995 78.2667 310.528 80.9707 306.229 83.328C301.931 85.6853 296.661 87.6267 290.421 89.152C284.32 90.5387 277.04 91.232 268.581 91.232H263.589ZM449.541 3.248L282.725 158H241.749L408.357 3.248H449.541ZM265.877 65.648C271.008 65.648 275.307 65.0933 278.773 63.984C282.379 62.8747 285.291 61.4187 287.509 59.616C289.728 57.8133 291.253 55.8027 292.085 53.584C293.056 51.3653 293.541 49.1467 293.541 46.928V45.264C293.541 42.768 293.056 40.4107 292.085 38.192C291.253 35.9733 289.728 34.032 287.509 32.368C285.429 30.704 282.587 29.3867 278.981 28.416C275.515 27.4453 271.147 26.96 265.877 26.96C260.608 26.96 256.24 27.4453 252.773 28.416C249.307 29.3867 246.533 30.704 244.453 32.368C242.373 34.032 240.848 35.9733 239.877 38.192C239.045 40.4107 238.629 42.768 238.629 45.264V46.512C238.629 48.8693 239.045 51.2267 239.877 53.584C240.848 55.8027 242.373 57.8133 244.453 59.616C246.672 61.4187 249.515 62.8747 252.981 63.984C256.448 65.0933 260.747 65.648 265.877 65.648ZM422.917 159.664C410.437 159.664 400.315 158.139 392.549 155.088C384.923 151.899 378.96 148.085 374.661 143.648C370.501 139.072 367.728 134.288 366.341 129.296C364.955 124.165 364.261 119.728 364.261 115.984V112.448C364.261 108.565 364.955 104.197 366.341 99.344C367.728 94.352 370.501 89.7067 374.661 85.408C378.96 80.9707 384.923 77.2267 392.549 74.176C400.315 71.1253 410.437 69.6 422.917 69.6H428.117C440.597 69.6 450.651 71.1253 458.277 74.176C466.043 77.2267 472.005 80.9707 476.165 85.408C480.325 89.7067 483.099 94.352 484.485 99.344C485.872 104.197 486.565 108.565 486.565 112.448V115.984C486.565 119.728 485.872 124.165 484.485 129.296C483.099 134.288 480.325 139.072 476.165 143.648C472.005 148.085 466.112 151.899 458.485 155.088C450.859 158.139 440.736 159.664 428.117 159.664H422.917ZM425.413 133.872C430.544 133.872 434.843 133.317 438.309 132.208C441.915 131.099 444.827 129.643 447.045 127.84C449.264 126.037 450.789 124.027 451.621 121.808C452.592 119.589 453.077 117.371 453.077 115.152V113.488C453.077 111.131 452.592 108.843 451.621 106.624C450.789 104.405 449.264 102.464 447.045 100.8C444.965 99.136 442.123 97.8187 438.517 96.848C435.051 95.7387 430.683 95.184 425.413 95.184C420.144 95.184 415.707 95.7387 412.101 96.848C408.635 97.8187 405.861 99.136 403.781 100.8C401.701 102.464 400.176 104.405 399.205 106.624C398.373 108.843 397.957 111.131 397.957 113.488V114.736C397.957 117.093 398.373 119.451 399.205 121.808C400.176 124.027 401.701 126.037 403.781 127.84C406 129.643 408.843 131.099 412.309 132.208C415.776 133.317 420.144 133.872 425.413 133.872Z" fill="#33E6FF" fill-opacity="0.1"/>
</svg>
