<svg width="582" height="159" viewBox="0 0 582 159" fill="none" xmlns="http://www.w3.org/2000/svg">
<path d="M0.16 61.112V31.992C6.816 31.576 12.64 30.536 17.632 28.872C22.624 27.208 26.9227 25.128 30.528 22.632C34.272 19.9973 37.392 17.016 39.888 13.688C42.384 10.2213 44.5333 6.40799 46.336 2.248H84.192V157H36.144V61.112H0.16ZM289.145 2.248V34.904C287.481 36.8453 285.262 39.3413 282.489 42.392C279.854 45.304 276.804 48.7013 273.337 52.584C269.87 56.328 266.196 60.5573 262.313 65.272C258.43 69.9867 254.548 74.9093 250.665 80.04C244.702 87.944 240.057 95.1547 236.729 101.672C233.401 108.051 230.905 114.221 229.241 120.184C227.577 126.008 226.537 131.763 226.121 137.448C225.705 142.995 225.497 148.888 225.497 155.128V157H169.961V137.448C169.961 131.208 170.585 125.523 171.833 120.392C173.081 115.261 175.23 110.061 178.281 104.792C181.47 99.5227 185.63 93.976 190.761 88.152C195.892 82.328 202.409 75.672 210.313 68.184C215.998 62.776 220.713 58.2693 224.457 54.664C228.201 51.0587 231.252 48.1467 233.609 45.928C235.966 43.5707 237.63 41.768 238.601 40.52C239.71 39.1333 240.404 38.024 240.681 37.192H153.321V69.016H104.233V2.248H289.145ZM358.058 90.232C345.439 90.232 335.247 88.7067 327.482 85.656C319.855 82.4667 313.962 78.6533 309.802 74.216C305.642 69.7787 302.869 65.064 301.482 60.072C300.095 54.9413 299.402 50.504 299.402 46.76V43.224C299.402 39.3413 300.095 34.9733 301.482 30.12C302.869 25.128 305.642 20.4827 309.802 16.184C313.962 11.7467 319.855 8.00266 327.482 4.952C335.247 1.90133 345.439 0.375996 358.058 0.375996H363.05C375.669 0.375996 385.791 1.90133 393.418 4.952C401.045 8.00266 406.938 11.7467 411.098 16.184C415.258 20.4827 418.031 25.128 419.418 30.12C420.805 34.9733 421.498 39.3413 421.498 43.224V46.76C421.498 49.256 421.221 52.0987 420.666 55.288C420.111 58.3387 419.071 61.528 417.546 64.856C416.021 68.0453 413.871 71.1653 411.098 74.216C408.463 77.2667 404.997 79.9707 400.698 82.328C396.399 84.6853 391.13 86.6267 384.89 88.152C378.789 89.5387 371.509 90.232 363.05 90.232H358.058ZM544.01 2.248L377.194 157H336.218L502.826 2.248H544.01ZM360.346 64.648C365.477 64.648 369.775 64.0933 373.242 62.984C376.847 61.8747 379.759 60.4187 381.978 58.616C384.197 56.8133 385.722 54.8027 386.554 52.584C387.525 50.3653 388.01 48.1467 388.01 45.928V44.264C388.01 41.768 387.525 39.4107 386.554 37.192C385.722 34.9733 384.197 33.032 381.978 31.368C379.898 29.704 377.055 28.3867 373.45 27.416C369.983 26.4453 365.615 25.96 360.346 25.96C355.077 25.96 350.709 26.4453 347.242 27.416C343.775 28.3867 341.002 29.704 338.922 31.368C336.842 33.032 335.317 34.9733 334.346 37.192C333.514 39.4107 333.098 41.768 333.098 44.264V45.512C333.098 47.8693 333.514 50.2267 334.346 52.584C335.317 54.8027 336.842 56.8133 338.922 58.616C341.141 60.4187 343.983 61.8747 347.45 62.984C350.917 64.0933 355.215 64.648 360.346 64.648ZM517.386 158.664C504.906 158.664 494.783 157.139 487.018 154.088C479.391 150.899 473.429 147.085 469.13 142.648C464.97 138.072 462.197 133.288 460.81 128.296C459.423 123.165 458.73 118.728 458.73 114.984V111.448C458.73 107.565 459.423 103.197 460.81 98.344C462.197 93.352 464.97 88.7067 469.13 84.408C473.429 79.9707 479.391 76.2267 487.018 73.176C494.783 70.1253 504.906 68.6 517.386 68.6H522.586C535.066 68.6 545.119 70.1253 552.746 73.176C560.511 76.2267 566.474 79.9707 570.634 84.408C574.794 88.7067 577.567 93.352 578.954 98.344C580.341 103.197 581.034 107.565 581.034 111.448V114.984C581.034 118.728 580.341 123.165 578.954 128.296C577.567 133.288 574.794 138.072 570.634 142.648C566.474 147.085 560.581 150.899 552.954 154.088C545.327 157.139 535.205 158.664 522.586 158.664H517.386ZM519.882 132.872C525.013 132.872 529.311 132.317 532.778 131.208C536.383 130.099 539.295 128.643 541.514 126.84C543.733 125.037 545.258 123.027 546.09 120.808C547.061 118.589 547.546 116.371 547.546 114.152V112.488C547.546 110.131 547.061 107.843 546.09 105.624C545.258 103.405 543.733 101.464 541.514 99.8C539.434 98.136 536.591 96.8187 532.986 95.848C529.519 94.7387 525.151 94.184 519.882 94.184C514.613 94.184 510.175 94.7387 506.57 95.848C503.103 96.8187 500.33 98.136 498.25 99.8C496.17 101.464 494.645 103.405 493.674 105.624C492.842 107.843 492.426 110.131 492.426 112.488V113.736C492.426 116.093 492.842 118.451 493.674 120.808C494.645 123.027 496.17 125.037 498.25 126.84C500.469 128.643 503.311 130.099 506.778 131.208C510.245 132.317 514.613 132.872 519.882 132.872Z" fill="#33E6FF" fill-opacity="0.1"/>
</svg>
