<svg width="228" height="57" viewBox="0 0 228 57" fill="none" xmlns="http://www.w3.org/2000/svg">
<path fill-rule="evenodd" clip-rule="evenodd" d="M28.5367 54.7984C43.0847 54.7984 54.8753 43.0243 54.8753 28.5C54.8753 13.9745 43.0847 2.20162 28.5367 2.20162C13.9934 2.20162 2.20636 13.9745 2.20636 28.5C2.20636 43.0231 13.9934 54.7984 28.5367 54.7984ZM28.5367 0C44.3054 0 57.0805 12.7609 57.0805 28.5C57.0805 44.2391 44.303 57 28.5367 57C12.7786 57 0 44.2391 0 28.5C0 12.7609 12.7774 0 28.5367 0ZM28.5367 48.6875C27.5985 48.6875 27.0333 48.0617 26.9989 47.2055C26.7934 47.5914 26.5286 47.8527 26.1296 47.9322C25.733 48.0063 25.3234 47.9591 24.954 47.7969C24.5893 47.651 24.2924 47.374 24.1216 47.0203C23.9434 46.6593 24.0028 46.2876 24.1299 45.8541C23.6881 46.4835 22.9424 46.6474 22.2857 46.3434C21.3856 45.9254 21.0578 45.1666 21.4271 44.3009C22.5386 41.6789 23.6442 39.1044 24.7604 36.4859C24.8614 36.2484 24.9469 36.0026 25.0585 35.7663C25.1582 35.5561 25.2212 35.4017 25.315 35.2747C25.386 35.1793 25.4752 35.099 25.5774 35.0384C23.8508 35.2272 23.0208 35.9029 22.5636 36.2021C22.4424 36.2829 22.4496 36.2948 21.9829 36.1499C21.7759 36.0898 21.5537 36.1137 21.3642 36.2164C21.1527 36.3283 20.9502 36.4565 20.7586 36.5999C20.1399 37.0797 19.5081 37.5428 18.9227 38.0606C18.6496 38.3028 18.2577 38.7149 18.3112 39.0877C18.3539 39.4333 19.203 40.2337 19.4571 40.4724C20.0591 41.0376 19.1483 42.1016 17.9347 42.0007C18.2577 41.6634 18.3337 41.3773 18.2922 41.1231C18.1722 41.1219 17.9407 41.1445 17.7222 40.9498C17.4609 40.7158 17.5773 40.0247 17.335 39.7896C16.9075 39.3763 15.5099 39.3383 14.675 39.3027C14.3236 39.2884 13.9566 39.1946 13.9827 38.6519C13.4519 38.6876 13.3415 39.0794 13.3415 39.4333C12.8843 39.1768 12.4936 37.9466 14.1799 37.6675C13.8949 37.4098 13.4222 37.316 13.1313 37.6437C12.857 37.1925 13.5505 36.3054 14.7985 36.8054C14.795 36.8018 15.3602 36.0679 17.0477 37.9454C17.2602 37.7863 17.4716 37.6295 17.6652 37.4514C18.3183 36.8612 19.9641 35.2628 19.9641 35.2628C19.9641 34.3639 20.0995 32.623 21.2953 31.5792C21.8048 31.1339 22.2928 30.8976 23.3711 30.704C23.3711 30.704 22.8498 29.8929 22.7678 29.5735C21.8273 30.5069 19.938 30.7859 19.938 29.2113C18.3978 30.7396 16.9669 29.9155 16.9669 28.956C16.9136 29.4423 16.8032 29.9206 16.638 30.381C16.4444 30.8964 15.739 32.8712 13.9186 32.8712C13.8771 33.5576 13.8735 35.815 11.698 36.3209C11.6042 36.3423 11.4843 36.3743 11.4249 36.4456C10.5461 37.5309 6.8934 38.6709 6.4469 38.3634C6.72953 38.1615 7.17721 37.8943 7.24846 36.6201C7.29359 35.7794 7.38621 31.4165 7.38621 25.2712C7.38621 23.0957 7.62252 16.0491 14.6418 15.067C15.707 14.9186 16.7544 14.9958 17.6616 15.6643C18.8966 16.5811 19.5046 18.1224 18.7778 19.8693C18.7541 19.9322 18.7363 19.9939 18.703 20.0498C18.456 20.4654 18.557 20.824 18.8788 21.1423C19.4642 21.7206 20.147 22.1113 20.9688 22.2063C21.4865 22.2656 21.9164 22.0388 22.2596 21.6849C23.0469 20.8798 23.5813 19.9334 23.7748 18.8219C24.1406 16.7105 23.5729 15.6512 23.5409 15.5847C22.9697 14.4471 21.7573 13.6135 20.3513 13.4948C19.7076 12.3001 17.8599 12.7727 17.8599 12.7727C17.3968 12.8725 17.2341 13.0031 17.1189 13.2299C17.1189 13.2299 16.3079 12.0044 17.0714 11.5128C17.8373 11.02 19.5461 10.8169 19.5461 10.8169C19.5461 10.0189 20.8761 9.39787 23.2784 9.82419C26.1842 10.3396 26.8089 9.21144 26.8089 9.21144C26.9312 10.5913 25.8672 11.3038 25.5264 11.4962C26.6295 12.6837 28.1697 15.0563 28.5367 18.4229C28.9048 15.0563 30.445 12.6837 31.547 11.4962C31.2062 11.3038 30.1433 10.5913 30.2645 9.21144C30.2645 9.21144 30.8891 10.3396 33.7949 9.82419C36.1984 9.39787 37.5284 10.0189 37.5284 10.8169C37.5284 10.8169 39.2372 11.0188 40.0019 11.5128C40.7667 12.0044 39.9544 13.2299 39.9544 13.2299C39.8392 13.0031 39.6765 12.8737 39.2134 12.7727C39.2134 12.7727 37.3657 12.3001 36.7221 13.4948C35.3161 13.6135 34.1048 14.4471 33.5336 15.5847C33.5016 15.6512 32.9672 16.701 33.2985 18.8219C33.4731 19.9358 34.0264 20.8798 34.8149 21.6849C35.1581 22.0388 35.5868 22.2644 36.1058 22.2063C36.9263 22.1113 37.6103 21.7194 38.1957 21.1423C38.5164 20.824 38.6173 20.4654 38.3715 20.0498C38.3371 19.9939 38.3192 19.9322 38.2967 19.8693C37.5687 18.1236 38.1779 16.5799 39.4129 15.6655C40.319 14.9969 41.3675 14.9174 42.4315 15.067C49.452 16.0491 49.6871 23.0957 49.6871 25.2712C49.6871 31.4165 49.7809 35.7794 49.8249 36.6201C49.8961 37.8943 50.3438 38.1615 50.6276 38.3634C50.1799 38.6721 46.5272 37.5309 45.6485 36.4456C45.5891 36.3743 45.4703 36.3423 45.3765 36.3209C43.201 35.815 43.1975 33.5576 43.1559 32.8712C41.3355 32.8712 40.6289 30.8964 40.4353 30.381C40.2701 29.9206 40.1597 29.4423 40.1064 28.956C40.1064 29.9155 38.6767 30.7396 37.1365 29.2113C37.1365 30.7859 35.246 30.5069 34.3067 29.5735C34.2236 29.8929 33.7011 30.704 33.7011 30.704C34.7817 30.8976 35.2686 31.1339 35.7792 31.5792C36.9738 32.6242 37.1092 34.3639 37.1092 35.2628C37.1092 35.2628 38.7562 36.8612 39.4094 37.4514C39.6017 37.6295 39.8131 37.7863 40.0269 37.9454C41.7131 36.0679 42.2783 36.8018 42.2748 36.8054C43.5228 36.3054 44.2163 37.1937 43.9432 37.6426C43.6523 37.316 43.1785 37.4098 42.8935 37.6663C44.5797 37.9466 44.189 39.1768 43.733 39.4333C43.733 39.0794 43.6214 38.6876 43.0918 38.6519C43.1179 39.1946 42.7498 39.2884 42.3983 39.3027C41.5635 39.3383 40.1658 39.3763 39.7383 39.7896C39.496 40.0247 39.6136 40.7158 39.3512 40.9498C39.1339 41.1445 38.9023 41.1219 38.7812 41.1231C38.7408 41.3773 38.8168 41.6634 39.1398 42.0019C37.925 42.1016 37.0142 41.0376 37.6174 40.4724C37.8692 40.2349 38.7194 39.4333 38.7622 39.0877C38.8168 38.7149 38.4237 38.3028 38.1506 38.0606C37.5652 37.5428 36.9346 37.0797 36.3147 36.5999C36.1231 36.4565 35.9207 36.3283 35.7091 36.2164C35.52 36.114 35.2982 36.0902 35.0916 36.1499C34.6249 36.2948 34.6321 36.2829 34.5098 36.2033C34.0526 35.9029 33.2237 35.2272 31.4959 35.0396C31.6135 35.1108 31.693 35.1868 31.7583 35.2747C31.8533 35.4017 31.9163 35.5561 32.0148 35.7663C32.1265 36.0038 32.2131 36.2484 32.3141 36.4859C33.4303 39.1044 34.5347 41.6789 35.6462 44.2997C36.0167 45.1666 35.6878 45.9266 34.7888 46.3422C34.1309 46.6474 33.3852 46.4847 32.9446 45.8553C33.0717 46.2876 33.1311 46.6593 32.9518 47.0203C32.7815 47.3739 32.485 47.651 32.1205 47.7969C31.7512 47.9591 31.3415 48.0063 30.9449 47.9322C30.5447 47.8527 30.2799 47.5914 30.0745 47.2055C30.04 48.0617 29.4748 48.6887 28.5367 48.6887V48.6875ZM74.1079 35.9243C74.9051 35.9575 75.7029 35.9765 76.5007 35.9813C79.8281 35.9813 81.7637 34.4304 81.7637 31.5341C81.7637 28.4109 79.46 27.398 74.1079 27.398V35.9243ZM76.7869 17.3529C78.3592 17.3529 81.5678 17.2128 83.4001 17.1C83.3529 17.4358 83.3252 17.774 83.3169 18.1129C83.3169 18.3101 83.3763 18.7613 83.4001 19.0701C81.7637 18.8444 79.061 18.6782 78.2202 18.6782C77.6312 18.6782 75.3465 18.7316 74.1079 18.8444V25.9089H75.5424C78.4755 25.9089 84.6481 26.4706 84.6481 31.5614C84.6481 35.6963 81.1806 37.582 76.6195 37.5559C76.1089 37.5559 74.197 37.4727 72.9774 37.4727C72.4466 37.4727 71.7982 37.4989 71.3458 37.5559C71.518 34.4601 71.5714 30.1815 71.5714 26.6368C71.5714 23.4591 71.5477 18.6485 71.3458 17.1012C73.1508 17.1855 76.1314 17.3529 76.7869 17.3529ZM95.4246 30.2967L93.5614 30.5757C91.5332 30.8869 89.277 31.5887 89.277 33.7309C89.277 35.3602 90.1818 36.2342 92.0094 36.2342C93.1399 36.2342 94.2656 35.8387 95.4246 34.6311V30.2967ZM87.8425 24.9791C88.9433 23.6301 90.968 23.0411 92.6637 23.0411C95.6206 23.0411 97.6749 24.5005 97.6749 28.0167V34.9944C97.6749 36.4301 97.9837 36.7662 98.5739 36.7662C98.7757 36.7662 99.0845 36.7092 99.2519 36.6522L99.4194 37.3291C98.7627 37.6609 98.041 37.8441 97.3056 37.8658C96.377 37.8658 95.788 37.4431 95.5612 36.6261L95.3949 36.0109C93.8714 37.2198 92.2101 37.8658 90.8302 37.8658C88.2652 37.8658 86.5992 36.5132 86.5992 34.1501C86.5992 31.6184 88.4908 30.4356 91.0808 29.9594L93.9498 29.4251C94.914 29.2552 95.4246 28.9738 95.4246 28.272C95.4246 25.2035 94.1267 24.4174 91.9856 24.4174C90.3232 24.4174 89.0798 24.8948 88.1821 26.7259H87.8425V24.9791ZM103.282 23.4032C103.591 23.4032 104.181 23.3474 104.603 23.3201C104.377 25.4552 104.349 28.9999 104.349 29.1424C105.533 29.1994 107.246 29.2552 108.156 29.2552C109.084 29.2552 110.86 29.1994 111.704 29.1424C111.704 28.9726 111.674 25.4303 111.455 23.3201C111.926 23.3474 112.549 23.4032 112.883 23.4032C113.198 23.4032 113.788 23.3474 114.211 23.3201C113.985 25.4303 113.954 28.9726 113.954 30.4356C113.954 31.6184 113.984 35.416 114.211 37.5559C113.78 37.5001 113.347 37.4724 112.913 37.4727C112.437 37.4727 111.871 37.5001 111.453 37.5559C111.674 35.416 111.704 31.6184 111.704 30.7206C110.467 30.6316 108.776 30.5211 108.127 30.5211C107.36 30.5211 105.479 30.5758 104.349 30.6612C104.349 31.6184 104.378 35.416 104.603 37.5559C104.173 37.5003 103.74 37.4725 103.306 37.4727C102.83 37.4727 102.265 37.5001 101.842 37.5559C102.063 35.416 102.092 31.6184 102.092 30.4356C102.092 28.9999 102.063 25.4303 101.842 23.3201C102.318 23.3474 102.943 23.4032 103.282 23.4032ZM119.477 23.4032C119.783 23.4032 120.377 23.3474 120.794 23.3201C120.573 25.4303 120.55 28.9999 120.55 29.5106H121.001C121.931 29.5106 126.691 24.1051 127.144 23.3201C127.536 23.3474 128.18 23.4032 128.52 23.4032C128.805 23.4032 129.482 23.3474 129.9 23.3201L123.168 29.3407C124.018 30.3525 128.489 35.3887 130.519 37.5559C129.958 37.5087 129.397 37.481 128.835 37.4727C128.323 37.4727 127.561 37.5001 126.97 37.5559C125.93 35.9242 122.745 32.1824 121.001 30.267H120.55C120.55 31.3084 120.573 35.416 120.794 37.5559C120.366 37.5 119.934 37.4722 119.502 37.4727C119.031 37.4728 118.466 37.5001 118.038 37.5559C118.27 35.416 118.299 31.6184 118.299 30.4356C118.299 28.9999 118.27 25.4303 118.038 23.3201C118.52 23.3474 119.139 23.4032 119.477 23.4032ZM144.064 26.7793C148.01 26.7793 150.325 25.2047 150.325 22.2205C150.325 19.4358 148.123 18.6782 145.391 18.6782C144.915 18.6782 143.278 18.7043 142.88 18.7613V26.6641C143.225 26.7259 143.784 26.7793 144.064 26.7793ZM142.968 17.1867C143.952 17.1867 145.225 17.1 145.951 17.1C151.164 17.1 153.195 18.6782 153.195 22.2205C153.195 26.809 149.332 28.2708 144.747 28.2708C144.124 28.2534 143.501 28.2158 142.88 28.158V33.0244C142.88 34.4304 142.94 36.1475 143.112 37.5559C142.118 37.4463 141.114 37.4463 140.12 37.5559C140.291 34.4589 140.35 30.1827 140.35 26.638C140.35 23.4602 140.32 18.6485 140.118 17.1C141.052 17.1273 142.32 17.1867 142.968 17.1867ZM156.286 30.6612C156.286 33.8402 157.613 36.765 160.597 36.765C163.47 36.765 165.19 34.0076 165.19 30.2385C165.19 27.2009 164.006 24.1347 160.822 24.1347C157.78 24.1347 156.286 27.3137 156.286 30.6612ZM167.869 30.3525C167.869 34.6572 165.072 37.8646 160.655 37.8646C156.316 37.8646 153.608 34.6869 153.608 30.7467C153.608 26.0775 156.596 23.0399 160.905 23.0399C165.19 23.0399 167.869 26.1333 167.869 30.3525ZM181.677 26.3851H181.337C180.349 24.7819 178.974 24.1347 177.421 24.1347C174.123 24.1347 172.546 27.3149 172.546 30.4083C172.546 33.9815 174.518 36.7662 178.011 36.7662C179.17 36.7662 180.212 36.5999 181.843 34.8246L182.099 35.1346L181.76 36.5132C180.403 37.4157 178.89 37.8658 177.141 37.8658C172.742 37.8658 169.869 34.7985 169.869 30.4653C169.869 25.935 172.968 23.0411 177.504 23.0411C178.974 23.0411 180.576 23.3201 182.379 24.2773L181.677 26.3851ZM195.897 26.3851H195.562C194.58 24.7819 193.199 24.1347 191.652 24.1347C188.35 24.1347 186.771 27.3149 186.771 30.4083C186.771 33.9815 188.753 36.7662 192.241 36.7662C193.39 36.7662 194.438 36.5999 196.069 34.8246L196.319 35.1346L195.986 36.5132C194.634 37.4157 193.111 37.8658 191.367 37.8658C186.973 37.8658 184.1 34.7985 184.1 30.4653C184.1 25.935 187.199 23.0411 191.735 23.0411C193.199 23.0411 194.806 23.3201 196.61 24.2773L195.897 26.3851ZM200.074 37.4727C199.902 37.4727 199.396 37.5262 199.17 37.5559C199.396 35.416 199.425 31.6184 199.425 30.4356C199.425 28.9987 199.396 25.4303 199.17 23.3201C199.651 23.3474 200.265 23.4032 200.605 23.4032C200.913 23.4032 201.503 23.3474 201.932 23.3201C201.706 25.4303 201.682 28.9726 201.682 30.4356C201.682 31.6184 201.705 33.2761 201.735 34.0646C203.282 32.1824 208.807 25.1774 210.133 23.3201C210.437 23.3736 210.634 23.4032 210.973 23.4032C211.139 23.4032 211.729 23.3474 212.05 23.3201C211.818 25.4303 211.788 28.9726 211.788 30.4356C211.788 31.6184 211.818 35.416 212.05 37.5547C211.619 37.4995 211.186 37.4718 210.752 37.4716C210.27 37.4716 209.71 37.4989 209.283 37.5547C209.508 35.4172 209.538 31.6172 209.538 30.4356C209.539 29.1505 209.521 27.8655 209.483 26.581C207.562 28.5238 202.491 35.1631 200.89 37.5547C200.622 37.4968 200.348 37.469 200.074 37.4716V37.4727ZM216.03 37.4727C215.729 37.4883 215.429 37.516 215.13 37.5559C215.351 35.416 215.38 31.6184 215.38 30.4356C215.38 28.9987 215.351 25.4303 215.131 23.3201C215.606 23.3474 216.221 23.4032 216.56 23.4032C216.87 23.4032 217.465 23.3474 217.887 23.3201C217.662 25.4303 217.636 28.9726 217.636 30.4356C217.636 31.6184 217.66 33.2761 217.69 34.0646C219.239 32.1824 224.756 25.1774 226.083 23.3201C226.392 23.3736 226.589 23.4032 226.929 23.4032C227.095 23.4032 227.69 23.3474 228 23.3201C227.778 25.4303 227.748 28.9726 227.748 30.4356C227.748 31.6184 227.778 35.416 228 37.5547C227.57 37.4991 227.136 37.4714 226.702 37.4716C226.226 37.4716 225.661 37.4989 225.243 37.5547C225.468 35.4172 225.493 31.6172 225.493 30.4356C225.493 28.9738 225.469 27.1748 225.44 26.581C223.523 28.5238 218.447 35.1631 216.84 37.5547C216.574 37.4966 216.302 37.4687 216.03 37.4716V37.4727Z" fill="white"/>
</svg>
