<svg width="82" height="82" viewBox="0 0 82 82" fill="none" xmlns="http://www.w3.org/2000/svg">
<path fill-rule="evenodd" clip-rule="evenodd" d="M56.1487 27.5356C54.8668 26.4168 53.023 26.4424 51.9652 26.7674C52.6583 25.9204 54.2721 25.2259 54.7478 25.1416C55.1101 25.2767 56.1485 26.3392 56.1485 27.5355L56.1487 27.5356ZM60.2418 22.9029C59.3988 18.4138 48.9179 21.3882 43.6397 19.4815C43.5385 20.7901 45.2646 22.8869 46.9156 23.663C44.0934 26.101 41.5597 31.0132 41.0485 37.0145C40.5388 31.0132 38.0049 26.101 35.1828 23.663C36.8337 22.8869 38.5612 20.7901 38.4587 19.4815C33.1806 21.3882 22.6996 18.4138 21.855 22.9029C21.6774 23.8529 22.1366 25.3009 22.6328 25.7171C22.7214 25.416 23.1848 24.4311 24.6458 24.2103C32.0299 23.0997 38.1949 34.428 32.63 39.0083C32.5453 39.0778 32.5928 39.2065 32.7078 39.2065H49.3917C49.5053 39.2065 49.5532 39.0778 49.4698 39.0083C43.9033 34.428 50.0684 23.0997 57.4524 24.2103C58.9148 24.4311 59.3765 25.416 59.4656 25.717C59.9616 25.3009 60.4208 23.853 60.2418 22.9028V22.9029ZM62.0377 12.5996C61.9052 12.1755 66.2347 12.1649 66.2347 14.8623C66.2347 16.6702 63.645 17.5265 63.645 19.4026C63.645 20.2763 64.5893 20.9173 64.8791 20.9173C64.2121 17.9052 66.9702 19.4815 67.7149 20.0448C66.2348 15.9943 69.5669 16.0198 69.2388 14.1626C69.0106 12.8646 66.1146 13.2567 65.0664 12.5996C63.2065 11.4342 61.0062 6.89934 59.556 11.4342C62.2593 13.9325 60.6863 17.6095 57.2546 17.6095C57.2546 17.6095 57.2353 18.1487 57.2668 18.1915C61.36 17.992 62.7868 14.9976 62.0378 12.5996H62.0377ZM14.2837 20.0448C15.0287 19.4815 17.7865 17.9052 17.1211 20.9173C17.4093 20.9173 18.3537 20.2763 18.3537 19.4026C18.3537 17.5265 15.7638 16.6702 15.7638 14.8623C15.7638 12.1648 20.0935 12.1755 19.9608 12.5996C19.2132 14.9975 20.6403 17.9922 24.7333 18.1915C24.7633 18.1487 24.7442 17.6095 24.7442 17.6095C21.3139 17.6095 19.7408 13.9323 22.4428 11.4342C20.9926 6.89934 18.7923 11.4342 16.9324 12.5996C15.8843 13.2568 12.9882 12.8646 12.7599 14.1626C12.4332 16.0198 15.7637 15.9944 14.2836 20.0448H14.2837ZM25.9058 27.5355C27.189 26.4167 29.0328 26.4423 30.0894 26.7673C29.3991 25.9202 27.7825 25.2257 27.3081 25.1415C26.9459 25.2766 25.906 26.3391 25.906 27.5353L25.9058 27.5355ZM42.996 2.42329L40.9993 0L39.0027 2.42329L40.9994 4.97367L42.9962 2.42329H42.996ZM54.394 9.75083L52.974 8.02858L51.5554 9.75083L52.974 11.4341L54.394 9.7507V9.75083ZM65.9109 59.5305L64.111 57.6344L62.311 59.5305L64.111 61.1937L65.9109 59.5303V59.5305ZM30.4445 9.75057L29.0244 8.02833L27.6058 9.75057L29.0244 11.4339L30.4444 9.75057H30.4445ZM26.3772 18.1912H31.6731C36.1256 18.1912 38.1292 15.4709 38.7346 13.1118H43.2652C43.8707 15.4711 45.8727 18.1914 50.3268 18.1914H55.6227C55.6227 18.1914 56.549 16.9403 56.7813 16.3208C57.6179 14.0915 56.549 13.0517 54.9897 13.0517L52.9739 14.8703L50.958 13.0517C49.3987 13.0517 48.33 14.0915 49.1664 16.3208C49.273 16.6059 49.5287 17.0245 49.7704 17.3925C47.8912 17.1355 45.4927 15.8551 44.9665 13.1118C44.9665 13.1118 46.355 10.9161 46.7036 10.0276C47.9556 6.83247 46.3565 5.52627 44.0181 5.52627L40.9991 9.05899L37.9804 5.52627C35.642 5.52627 34.043 6.83234 35.2962 10.0276C35.6435 10.9163 37.0333 13.112 37.0333 13.112C36.5058 15.8553 34.1073 17.1356 32.2281 17.3926C32.4714 17.0247 32.7256 16.6059 32.8322 16.3209C33.6671 14.0916 32.6013 13.0519 31.0404 13.0519L29.0247 14.8704L27.0089 13.0519C25.4483 13.0519 24.3822 14.0916 25.2174 16.3209C25.4496 16.9404 26.3776 18.1915 26.3776 18.1915L26.3772 18.1912ZM81.1299 34.5321C80.1075 35.0474 74.1107 37.8439 66.4287 36.8095C66.5082 36.4448 66.5757 36.0775 66.631 35.7083C71.7437 35.0994 75.8997 34.2364 78.5483 32.7699C81.5673 31.0972 82.8875 27.1045 81.3636 24.1338C81.3242 24.0589 81.2148 24.0456 81.1601 24.1082C80.3252 25.0651 75.0743 30.7507 66.8019 32.5182C66.7808 32.0917 66.7415 31.6663 66.6844 31.2431C70.7022 28.9749 74.6247 26.3615 76.493 23.9718C79.3167 20.3588 79.0568 15.7506 76.3701 13.4008C76.3422 13.377 76.3053 13.3663 76.2689 13.3714C76.2325 13.3765 76.2001 13.397 76.18 13.4276C75.33 14.8232 67.3734 27.6247 58.6376 33.151C58.531 33.2189 58.4235 33.2854 58.3152 33.3505C58.065 33.5017 58.0377 33.8254 58.251 34.0181C59.258 34.9267 59.884 36.1912 59.884 37.595C59.884 40.0355 57.9939 42.0654 55.4957 42.5056C54.226 42.7504 52.3931 42.6795 50.6329 42.1003C50.5537 42.0747 50.4717 42.1269 50.4717 42.2059V49.9362C50.4717 50.0605 50.6618 50.0913 50.7068 49.972C51.7767 47.1502 54.9802 46.5505 56.3812 46.5505C56.8854 49.5667 57.786 52.065 58.9559 53.4097C60.8608 55.5948 63.9715 55.5641 65.3204 54.0533C65.3427 54.0283 65.3522 53.9946 65.3464 53.9617C65.3405 53.9288 65.3198 53.9004 65.2902 53.8846C64.4977 53.4312 59.963 50.66 59.0554 46.1185C59.4138 45.9953 59.7634 45.8561 60.0984 45.6914C61.5621 48.1028 63.6926 50.2505 65.4078 51.0707C68.2888 52.4464 70.9264 51.7772 72.0963 49.7634C72.1386 49.6925 72.0868 49.6041 72.0006 49.5962C70.2185 49.4543 64.7491 47.894 62.4202 44.0926C62.6869 43.8489 62.9479 43.5947 63.1912 43.3244C65.6278 45.1709 69.0734 46.8034 71.5402 47.1366C74.4264 47.5273 77.6969 46.6107 77.7763 43.2695C77.7776 43.2025 77.7175 43.1477 77.6466 43.1519C76.62 43.2133 69.8263 43.5077 64.9856 40.7418C65.1537 40.4236 65.3105 40.0996 65.4557 39.7703C65.4557 39.7703 72.7702 41.4913 76.236 40.921C79.68 40.3551 81.6973 37.7994 81.3077 34.6202C81.2968 34.5409 81.2039 34.4943 81.1301 34.5317L81.1299 34.5321ZM16.5427 39.7707C16.6883 40.1 16.8455 40.424 17.0141 40.7422C12.1749 43.5067 5.38388 43.2149 4.35348 43.1523C4.28103 43.1481 4.22092 43.2056 4.2222 43.2712C4.30313 46.6111 7.5721 47.5276 10.4583 47.137C12.924 46.8038 16.3707 45.1713 18.8074 43.3248C19.052 43.5951 19.3118 43.8492 19.578 44.0928C17.248 47.894 11.78 49.4544 9.99782 49.5963C9.91176 49.6043 9.86115 49.6926 9.90226 49.7636C11.0722 51.7773 13.7098 52.4464 16.5922 51.0708C18.306 50.2506 20.4366 48.103 21.9004 45.6918C22.2364 45.8562 22.5863 45.9955 22.943 46.1186C22.0355 50.6601 17.5009 53.4313 16.7081 53.8847C16.6789 53.9008 16.6585 53.9292 16.6526 53.9619C16.6468 53.9947 16.6562 54.0283 16.6781 54.0535C18.027 55.5642 21.1391 55.5949 23.0439 53.4098C24.2141 52.065 25.1132 49.5668 25.6175 46.5508C27.0196 46.5508 30.2217 47.1504 31.2918 49.9722C31.3382 50.0914 31.5281 50.0605 31.5281 49.9362V42.2059C31.5281 42.127 31.4449 42.0748 31.3656 42.1003C29.6054 42.6795 27.7727 42.7506 26.5044 42.5056C24.0048 42.0655 22.1147 40.0356 22.1147 37.595C22.1147 36.1911 22.7419 34.9253 23.7478 34.0167C23.9623 33.8253 23.9337 33.5015 23.6849 33.3503C23.5756 33.2852 23.4672 33.2187 23.3596 33.1509C14.6294 27.6274 6.6767 14.8352 5.81983 13.4301C5.78001 13.3645 5.68444 13.3512 5.62562 13.4019C2.94287 15.753 2.68187 20.36 5.50539 23.9716C7.37365 26.3612 11.2958 28.9746 15.3126 31.2428C15.2559 31.666 15.2172 32.0914 15.1965 32.5178C6.93089 30.7516 1.68422 25.0752 0.840967 24.112C0.784964 24.0464 0.672701 24.0598 0.634553 24.1347C-0.886259 27.1066 0.43379 31.0968 3.45011 32.7695C6.09869 34.236 10.2547 35.099 15.3674 35.7079C15.4227 36.0771 15.4901 36.4444 15.5696 36.8091C7.89579 37.8422 1.90155 35.0524 0.871152 34.533C0.794598 34.4943 0.701602 34.5425 0.692097 34.6228C0.304187 37.8021 2.31978 40.3551 5.76382 40.921C9.2283 41.4913 16.5427 39.7703 16.5427 39.7703V39.7707ZM64.1108 63.6356L61.4458 61.5482C60.3825 62.1786 59.6008 63.1797 59.2974 64.3531C57.6944 64.5765 53.3236 63.6105 53.7485 62.9696C58.5388 56.263 54.8747 52.2701 50.4715 52.4922V56.9964C50.4715 58.4428 49.2032 59.6149 47.641 59.6149H44.6004C42.4191 59.6149 40.9991 61.7974 40.9991 61.7974C40.9991 61.7974 39.5794 59.6149 37.3981 59.6149H34.3573C32.7941 59.6149 31.5285 58.4428 31.5285 56.9964V52.4923C27.1251 52.2703 23.4582 56.2632 28.2499 62.9698C28.6708 63.6039 24.1785 64.6196 22.0712 64.3626C21.5163 63.7898 20.7153 63.4286 19.8187 63.4286C19.4376 63.4287 19.0595 63.4963 18.7022 63.6281C18.7022 63.6281 10.4217 55.8243 10.27 55.748L10.3383 55.5901C10.8097 54.7123 10.0882 53.7556 9.63188 53.8225C10.162 53.1897 10.1868 50.4183 7.24559 49.7774C7.33165 50.3341 7.37532 51.4702 7.37532 51.4702C7.37532 51.4702 5.1054 50.2484 3.96557 51.3027C2.96394 52.4831 4.35386 54.624 4.35386 54.624C4.35386 54.624 3.19219 54.6521 2.61957 54.6039C3.46154 57.438 6.28506 57.2372 6.89596 56.678C6.85614 57.1289 7.87729 57.7712 8.74225 57.2559L9.1222 57.0727C9.18925 57.1622 17.2539 64.7467 17.2539 64.7467C16.8835 65.294 16.7072 65.9657 16.8288 66.6816C17.0201 67.8004 17.9565 68.7276 19.1524 68.9683C19.9968 69.1371 20.7908 68.9737 21.4277 68.603L23.5625 70.5755C23.7526 70.7468 24.0095 70.8537 24.2963 70.8338C24.8184 70.7989 25.2093 70.3773 25.1697 69.8944C25.1533 69.6763 25.0413 69.4891 24.8867 69.3472C24.8526 69.3096 22.7124 67.3319 22.7124 67.3319C24.4779 66.0993 27.7676 65.2312 30.4981 65.2312C30.9778 65.2312 31.2033 64.8271 31.0379 64.4308C29.801 61.4696 32.4606 59.3248 35.2117 61.0709C36.4118 61.8323 37.6309 63.3324 38.5493 65.8345C34.0351 66.9226 28.3677 69.9196 27.221 73.1915C26.7795 74.4547 28.2378 76.1767 30.009 76.5235C30.0403 76.5303 30.0731 76.5245 30.1001 76.5071C30.1271 76.4897 30.1459 76.4623 30.1524 76.431C31.0778 71.5469 36.3544 67.9071 39.1 67.2889C39.2381 67.6569 39.1929 67.5379 39.331 67.9044C36.3407 69.3121 33.4407 72.2814 32.6124 75.8112C32.2325 77.4277 34.0433 78.8849 35.5385 79.2838C35.6136 79.3037 35.6875 79.2516 35.6916 79.1793C35.9758 74.7154 37.9561 70.9246 39.7299 69.1998C39.7785 69.5369 39.815 69.8756 39.8394 70.2153C39.8394 70.2153 38.0231 75.2533 38.0231 78.9291C38.0231 80.6391 40.576 81.8328 40.9533 82C41.4247 81.8328 43.9763 80.6391 43.9763 78.9291C43.9763 75.2532 42.16 70.2153 42.16 70.2153C42.1848 69.8756 42.2217 69.5369 42.2708 69.1998C44.0433 70.9246 46.0249 74.714 46.3078 79.1778C46.312 79.2502 46.3871 79.3037 46.4607 79.2837C47.9574 78.885 49.7669 77.4278 49.3883 75.8114C48.5585 72.2815 45.66 69.3124 42.6696 67.9047C42.8063 67.538 42.7612 67.657 42.8992 67.2891C45.6463 67.9072 50.9217 71.5467 51.8469 76.4309C51.8535 76.4621 51.8724 76.4894 51.8994 76.5068C51.9263 76.5241 51.9591 76.5301 51.9905 76.5233C53.7602 76.1768 55.2212 74.4546 54.777 73.1916C53.6332 69.9197 47.9642 66.9227 43.4502 65.8347C44.3698 63.3325 45.5888 61.8325 46.7887 61.0711C49.5385 59.3249 52.198 61.47 50.9612 64.4312C50.7958 64.8271 51.0199 65.2312 51.5011 65.2312C54.5896 65.2312 58.3943 66.3419 59.9002 67.8312C60.8625 69.2683 62.6405 70.1876 64.6469 69.9907C66.9264 69.7687 68.7852 68.0639 69.0421 65.9565C69.2662 64.1099 68.3068 62.4519 66.7775 61.5487L64.111 63.6363L64.1108 63.6356ZM44.4677 50.1837C45.4176 49.8334 46.9059 50.117 46.8553 51.4817C46.8431 51.7908 47.2792 51.7908 47.3105 51.4749C47.5948 49.4318 46.2075 48.8429 44.7562 49.0825C44.5759 48.3799 44.4283 47.7658 44.2601 47.1569C44.1263 46.6647 44.077 45.7399 44.6497 45.7399C44.9586 45.7399 44.8343 46.6004 44.8057 46.9709C44.7796 47.296 44.8971 47.4928 45.1624 47.5021C45.3278 47.5088 45.5342 47.2989 45.6571 47.1595C46.4882 46.2242 46.6809 44.7765 45.7077 44.0781C44.8934 43.4919 42.8542 43.9281 42.2936 44.7631C42.2091 44.4485 41.8045 43.9294 41.6103 43.7031C41.4218 43.4826 41.3727 43.3313 41.6337 43.1373C41.7567 43.0436 42.1284 42.6758 42.1284 42.2956C42.1284 42.0709 41.9535 41.656 41.3973 41.656C40.9585 41.656 40.4707 41.9585 40.4707 42.6328C40.4707 42.7828 40.5076 42.9435 40.6045 43.1161C40.3271 43.0705 39.5741 43.0893 39.1874 43.1843L44.5351 57.7923C46.0658 57.0402 47.1878 55.8493 47.1878 54.5715C47.1878 53.4822 45.5763 53.8435 44.7933 54.6933C44.5418 53.3124 44.3177 52.0371 44.0731 50.7658C44.0063 50.4153 44.1853 50.2896 44.4681 50.1838L44.4677 50.1837ZM36.906 40.2607L38.0294 43.3676C37.0674 43.5952 35.5204 44.2936 35.5204 45.2181C35.5204 46.4494 37.7083 47.2508 38.9739 47.1544C38.911 47.4354 38.9835 47.6856 39.1803 47.9144C38.7211 47.9144 37.8548 48.1271 37.5704 48.4322C36.8994 47.81 35.8497 47.5838 35.3508 47.9626C34.8493 48.344 34.8344 48.9903 35.3577 49.7209C35.7225 50.2267 35.8593 50.7258 35.4493 51.3118C36.9745 51.3118 36.4127 49.3382 37.01 49.3382C36.9321 49.7209 36.9799 50.1638 37.1536 50.6549C37.2684 50.9813 37.2684 51.2128 37.0716 51.5272C36.5797 52.3101 35.8144 54.1084 35.9182 55.7343C35.418 55.7315 35.1638 55.6096 35.3401 54.93C35.4057 54.6769 35.2486 54.4964 35.0409 54.8082C34.8112 55.1521 34.7005 55.7395 34.7005 55.9909C34.7005 57.4389 36.4332 57.7305 37.0947 57.4242C39.0082 59.2672 42.7666 58.7756 44.0252 58.1574L37.4079 40.0837C37.2725 39.7426 36.7875 39.9057 36.9063 40.2604L36.906 40.2607ZM36.6764 55.1482C36.5397 54.404 37.5797 53.0741 38.9027 51.7909C38.6212 52.6271 38.7961 54.0683 39.3482 54.5648C38.3887 54.5648 37.249 54.744 36.6765 55.1482H36.6764Z" fill="white"/>
</svg>
