<svg width="85" height="77" viewBox="0 0 85 77" fill="none" xmlns="http://www.w3.org/2000/svg">
<path fill-rule="evenodd" clip-rule="evenodd" d="M32.0333 4.48701e-07C26.6886 -0.000897632 21.43 1.34636 16.7441 3.91709C12.0583 6.48783 8.09655 10.199 5.22558 14.7071C2.3546 19.2153 0.667132 24.3748 0.319326 29.7082C-0.0284802 35.0416 0.974614 40.3765 3.23579 45.2194L0.164105 57.2603C-0.0613525 58.1448 -0.0543905 59.0725 0.184317 59.9535C0.423024 60.8345 0.885372 61.6389 1.52651 62.2885C2.16765 62.9382 2.96581 63.4111 3.84357 63.6614C4.72132 63.9118 5.64888 63.931 6.53625 63.7172L7.85539 63.4006C10.9734 62.6521 15.1638 61.6462 18.9501 60.743C23.2703 62.6911 27.9715 63.6483 32.7094 63.5443C37.4474 63.4404 42.1021 62.278 46.3327 60.1422C50.5633 58.0065 54.2626 54.9515 57.1597 51.201C60.0568 47.4506 62.0782 43.0995 63.0761 38.4667C64.074 33.8338 64.0229 29.0364 62.9267 24.4258C61.8305 19.8152 59.7169 15.5082 56.7407 11.8202C53.7644 8.13225 50.001 5.15668 45.7259 3.11144C41.4508 1.06621 36.7724 0.00310702 32.0333 4.48701e-07ZM6.61251 31.776C6.61419 26.2482 8.41762 20.8717 11.7496 16.461C15.0815 12.0502 19.7603 8.8458 25.0771 7.33317C30.3939 5.82054 36.0588 6.08217 41.2135 8.0784C46.3682 10.0746 50.7318 13.6967 53.643 18.3957C56.5542 23.0948 57.8544 28.6147 57.3466 34.1191C56.8388 39.6234 54.5506 44.8123 50.8288 48.8994C47.107 52.9865 42.1544 55.749 36.7215 56.7684C31.2885 57.7879 25.6713 57.0086 20.7211 54.5488L19.6915 54.0361L18.5688 54.3031L6.75657 57.129C7.41791 54.5498 8.23926 51.3202 9.02725 48.2217L9.67996 45.6558L9.97653 44.4864L9.42575 43.4145C7.57019 39.816 6.60543 35.8247 6.61251 31.776ZM32.0332 12.7144C30.1055 12.7144 28.1269 13.0279 26.2881 14.0108V14.0066C24.4155 15.0065 22.9411 16.5614 21.8226 18.6205C21.6237 18.9877 21.499 19.3905 21.4558 19.8058C21.4125 20.2212 21.4515 20.6411 21.5706 21.0414C21.6896 21.4417 21.8863 21.8146 22.1494 22.1389C22.4125 22.4632 22.737 22.7325 23.1042 22.9314C23.4714 23.1303 23.8742 23.2549 24.2896 23.2982C24.705 23.3414 25.1248 23.3024 25.5251 23.1834C25.9254 23.0644 26.2984 22.8677 26.6226 22.6046C26.9469 22.3414 27.2162 22.017 27.4151 21.6498C28.0337 20.5058 28.6735 19.9381 29.2793 19.6161C29.9233 19.2729 30.7834 19.0653 32.0332 19.0653C33.0792 19.0746 34.0925 19.4307 34.9143 20.0779C35.6388 20.6668 36.27 21.6201 36.27 23.3021C36.27 24.1283 35.9523 24.5096 33.7788 26.217C31.868 27.7169 28.8556 30.1488 28.8556 34.9533C28.8556 35.7961 29.1904 36.6043 29.7863 37.2002C30.3823 37.7961 31.1905 38.1309 32.0332 38.1309C32.876 38.1309 33.6842 37.7961 34.2801 37.2002C34.8761 36.6043 35.2108 35.7961 35.2108 34.9533C35.2108 33.3815 35.9057 32.6273 37.7021 31.2165L38.0622 30.9368L38.0631 30.9361C39.7072 29.6734 42.6252 27.4322 42.6252 23.3021C42.6252 19.7093 41.1381 16.9554 38.9477 15.159C36.8547 13.4473 34.2618 12.7144 32.0332 12.7144ZM35.0292 49.6008C34.2346 50.3954 33.157 50.8418 32.0333 50.8418C30.9096 50.8418 29.832 50.3954 29.0374 49.6008C28.2429 48.8063 27.7965 47.7286 27.7965 46.605C27.7965 45.4813 28.2429 44.4036 29.0374 43.6091C29.832 42.8145 30.9096 42.3682 32.0333 42.3682C33.157 42.3682 34.2346 42.8145 35.0292 43.6091C35.8237 44.4036 36.2701 45.4813 36.2701 46.605C36.2701 47.7286 35.8237 48.8063 35.0292 49.6008ZM31.6097 67.7892C37.2828 73.0471 44.8709 76.2628 53.2174 76.2628C57.7287 76.2689 62.1894 75.3112 66.3006 73.4538C70.7196 74.4876 75.5623 75.5214 78.6424 76.1654C79.5099 76.3482 80.4094 76.3093 81.2579 76.0522C82.1063 75.7951 82.8762 75.3282 83.4962 74.6946C84.1163 74.061 84.5665 73.2812 84.8053 72.4275C85.044 71.5737 85.0635 70.6735 84.862 69.8102C84.1757 66.8317 83.0868 62.2051 82.0149 57.9344C83.8973 53.901 84.9116 49.5173 84.9922 45.067C85.0729 40.6167 84.2181 36.199 82.4831 32.1001C80.7481 28.0011 78.1717 24.3122 74.9206 21.2721C71.6695 18.232 67.8163 15.9086 63.6103 14.4521C65.1131 17.183 66.2526 20.0986 66.9997 23.1249C70.572 25.4275 73.5093 28.5898 75.5427 32.3219C77.5761 36.054 78.6404 40.2367 78.6382 44.4868C78.6453 48.5355 77.6805 52.5268 75.825 56.1253L75.2742 57.1972L75.5707 58.3666C76.5325 62.1585 77.5451 66.4165 78.2908 69.5983C75.0072 68.8993 70.584 67.946 66.6819 67.0139L65.5592 66.747L64.5296 67.2596C61.1275 68.9543 57.289 69.9076 53.2216 69.9076C48.7306 69.9076 44.5108 68.7425 40.8502 66.7004C38.0285 67.4121 35.0754 67.7892 32.0334 67.7892H31.6097Z" fill="white"/>
</svg>
