<svg width="658" height="698" viewBox="0 0 658 698" fill="none" xmlns="http://www.w3.org/2000/svg">
<g style="mix-blend-mode:lighten" opacity="0.9">
<path d="M589.405 606.76L143.536 522.919C122.649 519.17 103.652 507.397 89.9275 489.697C76.2035 471.996 68.6441 449.518 68.596 426.266V237.858C68.57 214.661 76.0079 192.201 89.5955 174.445C103.183 156.69 122.046 144.783 142.85 140.828L485.826 76.5808C498.579 74.3199 511.626 75.1239 524.068 78.9375C536.511 82.7511 548.052 89.4836 557.898 98.6709C567.744 107.858 575.659 119.282 581.098 132.154C586.537 145.027 589.371 159.042 589.405 173.234V606.76Z" fill="white"/>
<path d="M658 697.008L131.189 597.152C94.438 590.365 61.075 569.46 37.048 538.162C13.021 506.864 -0.108267 467.209 0.000837234 426.266V237.858C-0.120713 196.87 12.9964 157.164 37.0184 125.804C61.0405 94.444 94.4096 73.4635 131.189 66.5952L474.165 2.34812C496.765 -1.77863 519.911 -0.454279 541.999 6.2293C564.086 12.9129 584.586 24.7957 602.075 41.0534C619.565 57.3111 633.626 77.5545 643.283 100.379C652.94 123.204 657.962 148.064 658 173.234V697.008ZM500.231 150.625C499.262 150.514 498.285 150.514 497.316 150.625L154.34 215.249C149.525 216.143 145.156 218.889 142.015 222.996C138.873 227.104 137.164 232.305 137.191 237.67V426.077C137.164 431.442 138.873 436.643 142.015 440.75C145.156 444.858 149.525 447.604 154.34 448.498L520.81 517.267V173.234C520.81 167.238 518.642 161.487 514.782 157.247C510.923 153.007 505.689 150.625 500.231 150.625Z" fill="white"/>
</g>
</svg>
